<svg width="20" height="21" viewBox="0 0 20 21" fill="none" xmlns="http://www.w3.org/2000/svg">
<path d="M10 20.5C4.47715 20.5 0 16.0228 0 10.5C0 4.97715 4.47715 0.5 10 0.5C15.5228 0.5 20 4.97715 20 10.5C19.9939 16.0203 15.5203 20.4939 10 20.5ZM2 10.672C2.04732 15.0732 5.64111 18.6095 10.0425 18.586C14.444 18.5622 17.9995 14.9875 17.9995 10.586C17.9995 6.18451 14.444 2.60977 10.0425 2.586C5.64111 2.56246 2.04732 6.09876 2 10.5V10.672ZM12 15.5H9V11.5H8V9.5H11V13.5H12V15.5ZM11 7.5H9V5.5H11V7.5Z" fill="#316F8A"/>
</svg>
