<svg width="375" height="120" viewBox="0 0 375 120" fill="none" xmlns="http://www.w3.org/2000/svg">
<path d="M187.136 79.5352C128.969 79.5352 81.8147 124.97 81.8147 181.018C81.8147 237.065 128.969 282.501 187.136 282.501C245.303 282.501 292.457 237.065 292.457 181.018C292.457 124.97 245.303 79.5352 187.136 79.5352ZM239.248 201.47L209.912 173.203V263.449H164.357V173.203L135.021 201.47V148.8L187.133 98.5864L239.246 148.8V201.47H239.248Z" fill="white" fill-opacity="0.2"/>
<path d="M187.499 321.655C167.752 321.655 148.587 317.925 130.543 310.571C113.119 303.47 97.4725 293.306 84.0371 280.36C70.6017 267.414 60.0529 252.337 52.6832 235.549C45.0511 218.16 41.1804 199.696 41.1804 180.668C41.1804 161.641 45.0511 143.174 52.6832 125.788C60.0529 108.999 70.6017 93.9222 84.0371 80.9764C97.4725 68.0306 113.119 57.8663 130.543 50.7652C148.59 43.4113 167.752 39.6816 187.499 39.6816C207.247 39.6816 226.412 43.4113 244.456 50.7652C261.882 57.8663 277.526 68.0306 290.962 80.9764C304.397 93.9222 314.943 108.999 322.316 125.788C329.948 143.177 333.818 161.641 333.818 180.668C333.818 199.696 329.948 218.162 322.316 235.549C314.946 252.34 304.397 267.414 290.962 280.36C277.526 293.306 261.879 303.467 244.456 310.571C226.412 317.925 207.249 321.655 187.499 321.655ZM187.499 60.7505C118.876 60.7505 63.0461 114.546 63.0461 180.668C63.0461 246.79 118.876 300.586 187.499 300.586C256.123 300.586 311.953 246.79 311.953 180.668C311.953 114.546 256.123 60.7505 187.499 60.7505Z" fill="white" fill-opacity="0.2"/>
<path d="M187.5 361.333C162.193 361.333 137.637 356.555 114.514 347.131C92.1864 338.031 72.1358 325.006 54.9171 308.418C37.7012 291.829 24.1838 272.509 14.7393 250.993C4.95867 228.715 0 205.052 0 180.667C0 156.282 4.95867 132.621 14.7393 110.341C24.1838 88.8267 37.7012 69.5068 54.9171 52.9157C72.133 36.3272 92.1837 23.3024 114.514 14.2022C137.637 4.77795 162.193 0 187.5 0C212.807 0 237.363 4.77795 260.486 14.2022C282.814 23.3024 302.867 36.3272 320.083 52.9157C337.299 69.5042 350.816 88.8241 360.261 110.341C370.041 132.621 375 156.282 375 180.667C375 205.052 370.041 228.712 360.261 250.993C350.816 272.507 337.299 291.829 320.083 308.418C302.867 325.006 282.816 338.031 260.486 347.131C237.366 356.555 212.807 361.333 187.5 361.333ZM187.5 21.0688C96.1692 21.0688 21.8657 92.6644 21.8657 180.667C21.8657 268.669 96.1692 340.264 187.5 340.264C278.831 340.264 353.134 268.669 353.134 180.667C353.134 92.6644 278.831 21.0688 187.5 21.0688Z" fill="white" fill-opacity="0.2"/>
</svg>
