<svg width="14" height="12" viewBox="0 0 14 12" fill="none" xmlns="http://www.w3.org/2000/svg">
<path fill-rule="evenodd" clip-rule="evenodd" d="M8.51992 3.86812e-08C8.79976 7.25768e-05 9.07248 0.0881948 9.29946 0.251884C9.52643 0.415574 9.69616 0.646532 9.78459 0.912045L10.1466 2.0001H11.6666C12.197 2.0001 12.7057 2.21082 13.0808 2.58592C13.4559 2.96101 13.6666 3.46974 13.6666 4.0002V9.3338C13.6666 9.86426 13.4559 10.373 13.0808 10.7481C12.7057 11.1232 12.197 11.3339 11.6666 11.3339H2.33325C1.80282 11.3339 1.29411 11.1232 0.919039 10.7481C0.543966 10.373 0.333252 9.86426 0.333252 9.3338V4.0002C0.333252 3.46974 0.543966 2.96101 0.919039 2.58592C1.29411 2.21082 1.80282 2.0001 2.33325 2.0001H3.85325L4.21525 0.912045C4.30372 0.646424 4.47354 0.415389 4.70065 0.251689C4.92776 0.0879899 5.20063 -6.73775e-05 5.48059 3.86812e-08H8.51925H8.51992ZM8.51992 1.3334H5.47992L5.11792 2.42145C5.02945 2.68707 4.85963 2.91811 4.63252 3.08181C4.40541 3.24551 4.13254 3.33357 3.85259 3.3335H2.33325C2.15644 3.3335 1.98687 3.40374 1.86185 3.52877C1.73682 3.6538 1.66659 3.82338 1.66659 4.0002V9.3338C1.66659 9.51062 1.73682 9.6802 1.86185 9.80523C1.98687 9.93026 2.15644 10.0005 2.33325 10.0005H11.6666C11.8434 10.0005 12.013 9.93026 12.138 9.80523C12.263 9.6802 12.3333 9.51062 12.3333 9.3338V4.0002C12.3333 3.82338 12.263 3.6538 12.138 3.52877C12.013 3.40374 11.8434 3.3335 11.6666 3.3335H10.1466C9.86675 3.33343 9.59403 3.2453 9.36705 3.08161C9.14007 2.91793 8.97035 2.68697 8.88192 2.42145L8.51992 1.3334ZM5.33325 6.33365C5.33325 5.8916 5.50885 5.46765 5.82141 5.15508C6.13397 4.8425 6.55789 4.6669 6.99992 4.6669C7.44195 4.6669 7.86587 4.8425 8.17843 5.15508C8.49099 5.46765 8.66659 5.8916 8.66659 6.33365C8.66659 6.7757 8.49099 7.19964 8.17843 7.51222C7.86587 7.82479 7.44195 8.0004 6.99992 8.0004C6.55789 8.0004 6.13397 7.82479 5.82141 7.51222C5.50885 7.19964 5.33325 6.7757 5.33325 6.33365ZM6.99992 3.3335C6.20427 3.3335 5.44121 3.64959 4.8786 4.21222C4.31599 4.77486 3.99992 5.53796 3.99992 6.33365C3.99992 7.12934 4.31599 7.89244 4.8786 8.45507C5.44121 9.01771 6.20427 9.3338 6.99992 9.3338C7.79557 9.3338 8.55863 9.01771 9.12124 8.45507C9.68385 7.89244 9.99992 7.12934 9.99992 6.33365C9.99992 5.53796 9.68385 4.77486 9.12124 4.21222C8.55863 3.64959 7.79557 3.3335 6.99992 3.3335Z" fill="#316F8A"/>
</svg>
