<svg width="21" height="21" viewBox="0 0 21 21" fill="none" xmlns="http://www.w3.org/2000/svg">
<path fill-rule="evenodd" clip-rule="evenodd" d="M10.2798 0.875488C12.7936 0.875488 15.1561 1.85286 16.9306 3.62824C20.5986 7.29624 20.5986 13.2637 16.9306 16.9317C15.1325 18.7307 12.7114 19.6827 10.2588 19.6827C8.92176 19.6827 7.57601 19.4001 6.31689 18.8174C5.94589 18.6686 5.59851 18.5286 5.34914 18.5286C5.06214 18.5304 4.67626 18.6634 4.30351 18.792C3.53876 19.0545 2.58676 19.3817 1.88239 18.68C1.18064 17.9774 1.50439 17.028 1.76514 16.2641C1.89376 15.8879 2.02589 15.4994 2.02589 15.2054C2.02589 14.9639 1.90951 14.6559 1.73101 14.2122C0.0921353 10.6729 0.849885 6.40724 3.62976 3.62911C5.40426 1.85374 7.76589 0.875488 10.2798 0.875488ZM10.2806 2.18799C8.11676 2.18799 6.08414 3.02974 4.55726 4.55749C2.16501 6.94799 1.51401 10.6186 2.93589 13.6925C3.14064 14.1991 3.33839 14.6926 3.33839 15.2054C3.33839 15.7172 3.16251 16.2326 3.00764 16.6876C2.87989 17.0621 2.68651 17.6274 2.81076 17.7516C2.93239 17.8776 3.50114 17.679 3.87651 17.5504C4.32714 17.3964 4.83814 17.2196 5.34476 17.2161C5.85226 17.2161 6.33089 17.4086 6.83751 17.6125C9.94114 19.0475 13.6118 18.3947 16.0031 16.0042C19.1584 12.8472 19.1584 7.71186 16.0031 4.55661C14.4754 3.02886 12.4436 2.18799 10.2806 2.18799ZM13.7342 9.76785C14.2172 9.76785 14.6092 10.159 14.6092 10.6429C14.6092 11.1267 14.2172 11.5179 13.7342 11.5179C13.2512 11.5179 12.8557 11.1267 12.8557 10.6429C12.8557 10.159 13.2433 9.76785 13.7263 9.76785H13.7342ZM10.2265 9.76785C10.7095 9.76785 11.1015 10.159 11.1015 10.6429C11.1015 11.1267 10.7095 11.5179 10.2265 11.5179C9.74347 11.5179 9.34797 11.1267 9.34797 10.6429C9.34797 10.159 9.73472 9.76785 10.2186 9.76785H10.2265ZM6.71842 9.76785C7.20142 9.76785 7.59342 10.159 7.59342 10.6429C7.59342 11.1267 7.20142 11.5179 6.71842 11.5179C6.23542 11.5179 5.83992 11.1267 5.83992 10.6429C5.83992 10.159 6.22755 9.76785 6.71055 9.76785H6.71842Z" fill="#8C8C8C"/>
</svg>
