<svg width="100" height="100" viewBox="0 0 100 100" fill="none" xmlns="http://www.w3.org/2000/svg">
<circle cx="50" cy="50" r="50" fill="#E1EEF4"/>
<mask id="mask0_1116:5554" style="mask-type:alpha" maskUnits="userSpaceOnUse" x="0" y="0" width="100" height="100">
<circle cx="50" cy="50" r="50" fill="#E1EEF4"/>
</mask>
<g mask="url(#mask0_1116:5554)">
<rect x="3.33337" y="50.3335" width="93.3333" height="51.4172" rx="1.11776" fill="white"/>
<rect x="3.47309" y="50.4732" width="93.0539" height="51.1377" rx="0.978044" stroke="#316F8A" stroke-opacity="0.16" stroke-width="0.279441"/>
<path d="M3.33337 99.7944H96.6667V100.772C96.6667 101.313 96.2288 101.751 95.6887 101.751H4.31142C3.77126 101.751 3.33337 101.313 3.33337 100.772V99.7944Z" fill="#219653"/>
<path d="M3.47309 99.9342H96.527V100.772C96.527 101.235 96.1517 101.611 95.6887 101.611H4.31142C3.84842 101.611 3.47309 101.235 3.47309 100.772V99.9342Z" stroke="#316F8A" stroke-opacity="0.16" stroke-width="0.279441"/>
<path d="M14.31 58.3602V61.481H13.684V59.4511L12.8479 61.481H12.374L11.5335 59.4511V61.481H10.9075V58.3602H11.6184L12.611 60.6806L13.6036 58.3602H14.31ZM14.7679 60.2335C14.7679 59.9832 14.8171 59.7611 14.9154 59.5673C15.0168 59.3736 15.1524 59.2246 15.3223 59.1202C15.4952 59.0159 15.6874 58.9638 15.8991 58.9638C16.0839 58.9638 16.2448 59.001 16.3819 59.0755C16.522 59.15 16.6338 59.2439 16.7173 59.3572V59.004H17.3477V61.481H16.7173V61.1188C16.6368 61.235 16.525 61.3319 16.3819 61.4094C16.2418 61.4839 16.0794 61.5212 15.8946 61.5212C15.6859 61.5212 15.4952 61.4675 15.3223 61.3602C15.1524 61.2529 15.0168 61.1024 14.9154 60.9087C14.8171 60.7119 14.7679 60.4869 14.7679 60.2335ZM16.7173 60.2425C16.7173 60.0905 16.6875 59.9608 16.6278 59.8535C16.5682 59.7432 16.4877 59.6597 16.3864 59.6031C16.2851 59.5435 16.1763 59.5137 16.06 59.5137C15.9438 59.5137 15.8365 59.542 15.7381 59.5986C15.6397 59.6553 15.5593 59.7387 15.4967 59.849C15.437 59.9563 15.4072 60.0845 15.4072 60.2335C15.4072 60.3826 15.437 60.5137 15.4967 60.627C15.5593 60.7373 15.6397 60.8222 15.7381 60.8818C15.8394 60.9414 15.9467 60.9713 16.06 60.9713C16.1763 60.9713 16.2851 60.9429 16.3864 60.8863C16.4877 60.8267 16.5682 60.7432 16.6278 60.6359C16.6875 60.5256 16.7173 60.3945 16.7173 60.2425ZM18.9292 58.9638C19.114 58.9638 19.2765 59.001 19.4166 59.0755C19.5567 59.1471 19.667 59.241 19.7474 59.3572V59.004H20.3779V61.4988C20.3779 61.7284 20.3317 61.9325 20.2393 62.1114C20.1469 62.2932 20.0083 62.4363 19.8235 62.5406C19.6387 62.6479 19.4151 62.7016 19.1528 62.7016C18.8011 62.7016 18.5119 62.6196 18.2854 62.4556C18.0619 62.2917 17.9352 62.0682 17.9054 61.785H18.5268C18.5596 61.8983 18.6297 61.9877 18.737 62.0533C18.8473 62.1218 18.9799 62.1561 19.1349 62.1561C19.3167 62.1561 19.4643 62.1009 19.5775 61.9907C19.6908 61.8834 19.7474 61.7194 19.7474 61.4988V61.1143C19.667 61.2306 19.5552 61.3275 19.4121 61.4049C19.272 61.4824 19.1111 61.5212 18.9292 61.5212C18.7206 61.5212 18.5298 61.4675 18.3569 61.3602C18.1841 61.2529 18.047 61.1024 17.9456 60.9087C17.8472 60.7119 17.7981 60.4869 17.7981 60.2335C17.7981 59.9832 17.8472 59.7611 17.9456 59.5673C18.047 59.3736 18.1826 59.2246 18.3525 59.1202C18.5254 59.0159 18.7176 58.9638 18.9292 58.9638ZM19.7474 60.2425C19.7474 60.0905 19.7176 59.9608 19.658 59.8535C19.5984 59.7432 19.5179 59.6597 19.4166 59.6031C19.3152 59.5435 19.2065 59.5137 19.0902 59.5137C18.974 59.5137 18.8666 59.542 18.7683 59.5986C18.6699 59.6553 18.5894 59.7387 18.5268 59.849C18.4672 59.9563 18.4374 60.0845 18.4374 60.2335C18.4374 60.3826 18.4672 60.5137 18.5268 60.627C18.5894 60.7373 18.6699 60.8222 18.7683 60.8818C18.8696 60.9414 18.9769 60.9713 19.0902 60.9713C19.2065 60.9713 19.3152 60.9429 19.4166 60.8863C19.5179 60.8267 19.5984 60.7432 19.658 60.6359C19.7176 60.5256 19.7474 60.3945 19.7474 60.2425ZM21.3067 58.7089C21.1964 58.7089 21.104 58.6746 21.0295 58.6061C20.9579 58.5345 20.9221 58.4466 20.9221 58.3423C20.9221 58.2379 20.9579 58.1515 21.0295 58.083C21.104 58.0114 21.1964 57.9756 21.3067 57.9756C21.4169 57.9756 21.5079 58.0114 21.5794 58.083C21.6539 58.1515 21.6912 58.2379 21.6912 58.3423C21.6912 58.4466 21.6539 58.5345 21.5794 58.6061C21.5079 58.6746 21.4169 58.7089 21.3067 58.7089ZM21.6152 59.004V61.481H20.9892V59.004H21.6152ZM22.0726 60.2425C22.0726 59.9861 22.1248 59.7626 22.2291 59.5718C22.3335 59.3781 22.478 59.229 22.6628 59.1247C22.8476 59.0174 23.0593 58.9638 23.2977 58.9638C23.6047 58.9638 23.8581 59.0412 24.0578 59.1962C24.2605 59.3483 24.3961 59.5629 24.4647 59.8401H23.7895C23.7538 59.7328 23.6927 59.6493 23.6062 59.5897C23.5228 59.5271 23.4184 59.4958 23.2932 59.4958C23.1144 59.4958 22.9728 59.5614 22.8685 59.6925C22.7642 59.8207 22.712 60.004 22.712 60.2425C22.712 60.4779 22.7642 60.6613 22.8685 60.7924C22.9728 60.9206 23.1144 60.9847 23.2932 60.9847C23.5466 60.9847 23.712 60.8714 23.7895 60.6449H24.4647C24.3961 60.9131 24.2605 61.1263 24.0578 61.2842C23.8551 61.4422 23.6017 61.5212 23.2977 61.5212C23.0593 61.5212 22.8476 61.469 22.6628 61.3647C22.478 61.2574 22.3335 61.1084 22.2291 60.9176C22.1248 60.7239 22.0726 60.4988 22.0726 60.2425ZM27.8083 58.3602V60.551C27.8083 60.855 27.7204 61.092 27.5445 61.2619C27.3687 61.4288 27.1332 61.5123 26.8381 61.5123C26.54 61.5123 26.2986 61.4258 26.1138 61.2529C25.932 61.0801 25.841 60.8386 25.841 60.5286H26.467C26.47 60.6628 26.5013 60.7671 26.5609 60.8416C26.6235 60.9161 26.7129 60.9534 26.8292 60.9534C26.9424 60.9534 27.0289 60.9176 27.0885 60.8461C27.1481 60.7745 27.1779 60.6762 27.1779 60.551V58.3602H27.8083ZM29.6384 61.5212C29.3999 61.5212 29.1853 61.469 28.9945 61.3647C28.8038 61.2574 28.6532 61.1069 28.543 60.9131C28.4357 60.7194 28.382 60.4958 28.382 60.2425C28.382 59.9891 28.4371 59.7656 28.5474 59.5718C28.6607 59.3781 28.8142 59.229 29.008 59.1247C29.2017 59.0174 29.4178 58.9638 29.6563 58.9638C29.8947 58.9638 30.1108 59.0174 30.3046 59.1247C30.4983 59.229 30.6503 59.3781 30.7606 59.5718C30.8739 59.7656 30.9305 59.9891 30.9305 60.2425C30.9305 60.4958 30.8724 60.7194 30.7561 60.9131C30.6429 61.1069 30.4879 61.2574 30.2911 61.3647C30.0974 61.469 29.8798 61.5212 29.6384 61.5212ZM29.6384 60.9757C29.7516 60.9757 29.8575 60.9489 29.9558 60.8952C30.0572 60.8386 30.1376 60.7552 30.1973 60.6449C30.2569 60.5346 30.2867 60.4005 30.2867 60.2425C30.2867 60.007 30.2241 59.8267 30.0989 59.7015C29.9767 59.5733 29.8262 59.5092 29.6473 59.5092C29.4685 59.5092 29.3179 59.5733 29.1957 59.7015C29.0765 59.8267 29.0169 60.007 29.0169 60.2425C29.0169 60.4779 29.075 60.6598 29.1913 60.7879C29.3105 60.9131 29.4595 60.9757 29.6384 60.9757ZM32.7846 58.9682C32.9724 58.9682 33.1393 59.01 33.2854 59.0934C33.4314 59.1739 33.5447 59.2946 33.6252 59.4556C33.7087 59.6135 33.7504 59.8043 33.7504 60.0279V61.481H33.1244V60.1128C33.1244 59.9161 33.0753 59.7656 32.9769 59.6612C32.8785 59.5539 32.7444 59.5003 32.5745 59.5003C32.4016 59.5003 32.2645 59.5539 32.1632 59.6612C32.0648 59.7656 32.0156 59.9161 32.0156 60.1128V61.481H31.3897V58.1724H32.0156V59.3125C32.0961 59.2052 32.2034 59.1217 32.3375 59.0621C32.4717 58.9995 32.6207 58.9682 32.7846 58.9682ZM35.7182 58.9682C36.0133 58.9682 36.2518 59.0621 36.4336 59.2499C36.6154 59.4347 36.7063 59.694 36.7063 60.0279V61.481H36.0804V60.1128C36.0804 59.9161 36.0312 59.7656 35.9329 59.6612C35.8345 59.5539 35.7004 59.5003 35.5305 59.5003C35.3576 59.5003 35.2205 59.5539 35.1191 59.6612C35.0208 59.7656 34.9716 59.9161 34.9716 60.1128V61.481H34.3456V59.004H34.9716V59.3125C35.055 59.2052 35.1609 59.1217 35.289 59.0621C35.4202 58.9995 35.5632 58.9682 35.7182 58.9682ZM38.2495 61.5212C38.0468 61.5212 37.8649 61.4854 37.704 61.4139C37.543 61.3394 37.4149 61.2395 37.3195 61.1143C37.2271 60.9891 37.1764 60.8505 37.1675 60.6985H37.7979C37.8098 60.7939 37.856 60.8729 37.9365 60.9355C38.0199 60.9981 38.1228 61.0294 38.245 61.0294C38.3642 61.0294 38.4566 61.0055 38.5222 60.9578C38.5907 60.9102 38.625 60.849 38.625 60.7745C38.625 60.6941 38.5833 60.6344 38.4998 60.5957C38.4194 60.554 38.2897 60.5092 38.1109 60.4616C37.926 60.4168 37.774 60.3706 37.6548 60.323C37.5386 60.2753 37.4372 60.2022 37.3508 60.1039C37.2673 60.0055 37.2256 59.8729 37.2256 59.7059C37.2256 59.5688 37.2643 59.4436 37.3418 59.3304C37.4223 59.2171 37.5356 59.1277 37.6816 59.0621C37.8307 58.9965 38.005 58.9638 38.2047 58.9638C38.4998 58.9638 38.7353 59.0383 38.9112 59.1873C39.087 59.3334 39.1839 59.5316 39.2018 59.782H38.6027C38.5937 59.6836 38.552 59.6061 38.4775 59.5495C38.4059 59.4898 38.3091 59.46 38.1869 59.46C38.0736 59.46 37.9857 59.4809 37.9231 59.5226C37.8635 59.5644 37.8336 59.6225 37.8336 59.697C37.8336 59.7805 37.8754 59.8445 37.9588 59.8893C38.0423 59.931 38.172 59.9742 38.3478 60.0189C38.5267 60.0636 38.6742 60.1098 38.7905 60.1575C38.9067 60.2052 39.0066 60.2797 39.09 60.3811C39.1765 60.4794 39.2212 60.6106 39.2241 60.7745C39.2241 60.9176 39.1839 61.0458 39.1034 61.159C39.0259 61.2723 38.9127 61.3617 38.7636 61.4273C38.6176 61.4899 38.4462 61.5212 38.2495 61.5212ZM40.8378 61.5212C40.5994 61.5212 40.3848 61.469 40.194 61.3647C40.0033 61.2574 39.8527 61.1069 39.7424 60.9131C39.6351 60.7194 39.5815 60.4958 39.5815 60.2425C39.5815 59.9891 39.6366 59.7656 39.7469 59.5718C39.8602 59.3781 40.0137 59.229 40.2074 59.1247C40.4012 59.0174 40.6173 58.9638 40.8557 58.9638C41.0942 58.9638 41.3103 59.0174 41.504 59.1247C41.6978 59.229 41.8498 59.3781 41.9601 59.5718C42.0734 59.7656 42.13 59.9891 42.13 60.2425C42.13 60.4958 42.0719 60.7194 41.9556 60.9131C41.8423 61.1069 41.6874 61.2574 41.4906 61.3647C41.2969 61.469 41.0793 61.5212 40.8378 61.5212ZM40.8378 60.9757C40.9511 60.9757 41.0569 60.9489 41.1553 60.8952C41.2566 60.8386 41.3371 60.7552 41.3967 60.6449C41.4563 60.5346 41.4862 60.4005 41.4862 60.2425C41.4862 60.007 41.4236 59.8267 41.2984 59.7015C41.1762 59.5733 41.0256 59.5092 40.8468 59.5092C40.6679 59.5092 40.5174 59.5733 40.3952 59.7015C40.276 59.8267 40.2164 60.007 40.2164 60.2425C40.2164 60.4779 40.2745 60.6598 40.3907 60.7879C40.51 60.9131 40.659 60.9757 40.8378 60.9757ZM43.9618 58.9682C44.2568 58.9682 44.4953 59.0621 44.6771 59.2499C44.859 59.4347 44.9499 59.694 44.9499 60.0279V61.481H44.3239V60.1128C44.3239 59.9161 44.2747 59.7656 44.1764 59.6612C44.078 59.5539 43.9439 59.5003 43.774 59.5003C43.6011 59.5003 43.464 59.5539 43.3626 59.6612C43.2643 59.7656 43.2151 59.9161 43.2151 60.1128V61.481H42.5891V59.004H43.2151V59.3125C43.2986 59.2052 43.4044 59.1217 43.5325 59.0621C43.6637 58.9995 43.8068 58.9682 43.9618 58.9682Z" fill="#219653"/>
<path d="M13.228 76.7215V79.042H12.9228V77.3117L12.1516 79.042H11.937L11.1624 77.3083V79.042H10.8572V76.7215H11.1858L12.0443 78.6396L12.9027 76.7215H13.228ZM14.5033 77.1742C14.6621 77.1742 14.8007 77.2089 14.9191 77.2782C15.0399 77.3475 15.1293 77.4346 15.1874 77.5397V77.2044H15.4959V79.0822C15.4959 79.2499 15.4601 79.3986 15.3886 79.5282C15.3171 79.6601 15.2142 79.763 15.0801 79.8367C14.9482 79.9105 14.794 79.9474 14.6173 79.9474C14.3759 79.9474 14.1747 79.8904 14.0138 79.7764C13.8528 79.6624 13.7578 79.507 13.7287 79.3103H14.0305C14.0641 79.422 14.1334 79.5115 14.2384 79.5785C14.3435 79.6478 14.4698 79.6825 14.6173 79.6825C14.785 79.6825 14.9214 79.6299 15.0264 79.5249C15.1338 79.4198 15.1874 79.2723 15.1874 79.0822V78.6966C15.127 78.8039 15.0376 78.8933 14.9191 78.9649C14.8007 79.0364 14.6621 79.0722 14.5033 79.0722C14.3401 79.0722 14.1915 79.0319 14.0573 78.9515C13.9254 78.871 13.8215 78.7581 13.7455 78.6128C13.6695 78.4675 13.6315 78.302 13.6315 78.1165C13.6315 77.9287 13.6695 77.7644 13.7455 77.6235C13.8215 77.4805 13.9254 77.3698 14.0573 77.2916C14.1915 77.2133 14.3401 77.1742 14.5033 77.1742ZM15.1874 78.1198C15.1874 77.9812 15.1595 77.8605 15.1036 77.7577C15.0477 77.6548 14.9717 77.5766 14.8755 77.523C14.7817 77.4671 14.6777 77.4391 14.5637 77.4391C14.4497 77.4391 14.3457 77.4659 14.2518 77.5196C14.1579 77.5732 14.0831 77.6515 14.0272 77.7543C13.9713 77.8572 13.9433 77.9779 13.9433 78.1165C13.9433 78.2573 13.9713 78.3803 14.0272 78.4853C14.0831 78.5882 14.1579 78.6675 14.2518 78.7234C14.3457 78.7771 14.4497 78.8039 14.5637 78.8039C14.6777 78.8039 14.7817 78.7771 14.8755 78.7234C14.9717 78.6675 15.0477 78.5882 15.1036 78.4853C15.1595 78.3803 15.1874 78.2584 15.1874 78.1198ZM15.8875 78.5021V78.2707L17.0645 76.641H17.43V78.2372H17.7654V78.5021H17.43V79.042H17.1282V78.5021H15.8875ZM17.1416 76.9596L16.2396 78.2372H17.1416V76.9596ZM18.4256 77.5028C18.4793 77.3978 18.5553 77.3162 18.6537 77.258C18.7543 77.1999 18.8761 77.1709 19.0192 77.1709V77.4861H18.9387C18.5967 77.4861 18.4256 77.6716 18.4256 78.0427V79.042H18.1205V77.2044H18.4256V77.5028ZM21.0481 78.0528C21.0481 78.1109 21.0447 78.1724 21.038 78.2372H19.5693C19.5804 78.4183 19.6419 78.5602 19.7537 78.6631C19.8677 78.7637 20.0052 78.814 20.1662 78.814C20.2981 78.814 20.4076 78.7838 20.4948 78.7234C20.5842 78.6608 20.6468 78.5781 20.6826 78.4753H21.0112C20.962 78.6519 20.8636 78.7961 20.7161 78.9079C20.5685 79.0174 20.3852 79.0722 20.1662 79.0722C19.9918 79.0722 19.8353 79.0331 19.6967 78.9548C19.5603 78.8766 19.453 78.7659 19.3748 78.6228C19.2965 78.4775 19.2574 78.3099 19.2574 78.1198C19.2574 77.9298 19.2954 77.7633 19.3714 77.6202C19.4474 77.4771 19.5536 77.3676 19.69 77.2916C19.8286 77.2133 19.9873 77.1742 20.1662 77.1742C20.3405 77.1742 20.4948 77.2122 20.6289 77.2882C20.763 77.3642 20.8659 77.4693 20.9374 77.6034C21.0112 77.7353 21.0481 77.8851 21.0481 78.0528ZM20.7329 77.9891C20.7329 77.8728 20.7072 77.7733 20.6557 77.6906C20.6043 77.6057 20.5339 77.542 20.4445 77.4995C20.3573 77.4548 20.26 77.4324 20.1527 77.4324C19.9985 77.4324 19.8666 77.4816 19.7571 77.58C19.6497 77.6783 19.5883 77.8147 19.5726 77.9891H20.7329ZM21.3368 78.1165C21.3368 77.9287 21.3749 77.7644 21.4509 77.6235C21.5269 77.4805 21.6308 77.3698 21.7627 77.2916C21.8968 77.2133 22.0455 77.1742 22.2087 77.1742C22.3697 77.1742 22.5094 77.2089 22.6279 77.2782C22.7463 77.3475 22.8347 77.4346 22.8928 77.5397V77.2044H23.2013V79.042H22.8928V78.7C22.8324 78.8073 22.7419 78.8967 22.6212 78.9682C22.5027 79.0375 22.3641 79.0722 22.2053 79.0722C22.0422 79.0722 21.8946 79.0319 21.7627 78.9515C21.6308 78.871 21.5269 78.7581 21.4509 78.6128C21.3749 78.4675 21.3368 78.302 21.3368 78.1165ZM22.8928 78.1198C22.8928 77.9812 22.8648 77.8605 22.8089 77.7577C22.7531 77.6548 22.677 77.5766 22.5809 77.523C22.487 77.4671 22.3831 77.4391 22.2691 77.4391C22.155 77.4391 22.0511 77.4659 21.9572 77.5196C21.8633 77.5732 21.7884 77.6515 21.7325 77.7543C21.6766 77.8572 21.6487 77.9779 21.6487 78.1165C21.6487 78.2573 21.6766 78.3803 21.7325 78.4853C21.7884 78.5882 21.8633 78.6675 21.9572 78.7234C22.0511 78.7771 22.155 78.8039 22.2691 78.8039C22.3831 78.8039 22.487 78.7771 22.5809 78.7234C22.677 78.6675 22.7531 78.5882 22.8089 78.4853C22.8648 78.3803 22.8928 78.2584 22.8928 78.1198ZM24.0221 76.5606V79.042H23.717V76.5606H24.0221ZM26.2188 76.8925C26.467 76.8925 26.6827 76.9395 26.866 77.0334C27.0493 77.1273 27.1902 77.2592 27.2885 77.4291C27.3869 77.5967 27.4361 77.7912 27.4361 78.0125C27.4361 78.1891 27.407 78.359 27.3489 78.5222C27.2908 78.6832 27.2058 78.814 27.094 78.9146C26.9845 79.0152 26.8559 79.0655 26.7084 79.0655C26.5966 79.0655 26.5106 79.0375 26.4502 78.9816C26.3898 78.9257 26.3552 78.8497 26.3462 78.7536C26.2769 78.8497 26.1886 78.9257 26.0813 78.9816C25.9763 79.0375 25.8645 79.0655 25.746 79.0655C25.5761 79.0655 25.442 79.014 25.3436 78.9112C25.2475 78.8061 25.1994 78.6653 25.1994 78.4887C25.1994 78.321 25.2341 78.1645 25.3034 78.0192C25.3749 77.8739 25.4733 77.7577 25.5985 77.6705C25.7237 77.5811 25.8656 77.5364 26.0243 77.5364C26.2367 77.5364 26.3798 77.6168 26.4536 77.7778L26.4904 77.5699H26.7553L26.5877 78.539C26.581 78.5815 26.5776 78.6206 26.5776 78.6564C26.5776 78.7905 26.6369 78.8576 26.7553 78.8576C26.8448 78.8576 26.9219 78.8151 26.9867 78.7301C27.0538 78.6452 27.1041 78.539 27.1376 78.4116C27.1712 78.2819 27.1879 78.1545 27.1879 78.0293C27.1879 77.7364 27.0996 77.5095 26.923 77.3486C26.7486 77.1876 26.5016 77.1071 26.1819 77.1071C25.9159 77.1071 25.6756 77.172 25.461 77.3016C25.2486 77.4291 25.0821 77.6045 24.9613 77.8281C24.8406 78.0517 24.7803 78.2987 24.7803 78.5692C24.778 78.8643 24.8663 79.0912 25.0452 79.2499C25.224 79.4109 25.4722 79.4913 25.7896 79.4913C25.9997 79.4913 26.1853 79.4533 26.3462 79.3773L26.3865 79.5852C26.1875 79.6679 25.9684 79.7093 25.7292 79.7093C25.49 79.7093 25.2788 79.6635 25.0955 79.5718C24.9144 79.4824 24.7736 79.3527 24.673 79.1828C24.5746 79.0152 24.5254 78.8196 24.5254 78.596C24.5254 78.2808 24.5981 77.9935 24.7434 77.7342C24.8887 77.4727 25.0899 77.267 25.347 77.1172C25.6063 76.9674 25.8969 76.8925 26.2188 76.8925ZM25.8365 78.8274C25.9371 78.8274 26.0299 78.7983 26.1149 78.7402C26.1998 78.6798 26.2669 78.5994 26.3161 78.4988C26.3652 78.3959 26.3898 78.2841 26.3898 78.1634C26.3898 78.0472 26.3574 77.9533 26.2926 77.8818C26.23 77.808 26.1406 77.7711 26.0243 77.7711C25.917 77.7711 25.822 77.8035 25.7393 77.8683C25.6588 77.9309 25.5962 78.0148 25.5515 78.1198C25.5068 78.2227 25.4845 78.33 25.4845 78.4418C25.4845 78.5602 25.5146 78.6541 25.575 78.7234C25.6353 78.7927 25.7225 78.8274 25.8365 78.8274ZM28.6959 77.1742C28.8546 77.1742 28.9932 77.2089 29.1117 77.2782C29.2324 77.3475 29.3218 77.4346 29.38 77.5397V77.2044H29.6885V79.0822C29.6885 79.2499 29.6527 79.3986 29.5812 79.5282C29.5096 79.6601 29.4068 79.763 29.2727 79.8367C29.1408 79.9105 28.9865 79.9474 28.8099 79.9474C28.5685 79.9474 28.3673 79.8904 28.2063 79.7764C28.0453 79.6624 27.9503 79.507 27.9213 79.3103H28.2231C28.2566 79.422 28.3259 79.5115 28.431 79.5785C28.536 79.6478 28.6624 79.6825 28.8099 79.6825C28.9776 79.6825 29.1139 79.6299 29.219 79.5249C29.3263 79.4198 29.38 79.2723 29.38 79.0822V78.6966C29.3196 78.8039 29.2302 78.8933 29.1117 78.9649C28.9932 79.0364 28.8546 79.0722 28.6959 79.0722C28.5327 79.0722 28.384 79.0319 28.2499 78.9515C28.118 78.871 28.014 78.7581 27.938 78.6128C27.862 78.4675 27.824 78.302 27.824 78.1165C27.824 77.9287 27.862 77.7644 27.938 77.6235C28.014 77.4805 28.118 77.3698 28.2499 77.2916C28.384 77.2133 28.5327 77.1742 28.6959 77.1742ZM29.38 78.1198C29.38 77.9812 29.352 77.8605 29.2961 77.7577C29.2402 77.6548 29.1642 77.5766 29.0681 77.523C28.9742 77.4671 28.8703 77.4391 28.7562 77.4391C28.6422 77.4391 28.5383 77.4659 28.4444 77.5196C28.3505 77.5732 28.2756 77.6515 28.2197 77.7543C28.1638 77.8572 28.1359 77.9779 28.1359 78.1165C28.1359 78.2573 28.1638 78.3803 28.2197 78.4853C28.2756 78.5882 28.3505 78.6675 28.4444 78.7234C28.5383 78.7771 28.6422 78.8039 28.7562 78.8039C28.8703 78.8039 28.9742 78.7771 29.0681 78.7234C29.1642 78.6675 29.2402 78.5882 29.2961 78.4853C29.352 78.3803 29.38 78.2584 29.38 78.1198ZM32.414 77.1709C32.557 77.1709 32.6845 77.201 32.7962 77.2614C32.908 77.3195 32.9963 77.4078 33.0611 77.5263C33.126 77.6448 33.1584 77.789 33.1584 77.9589V79.042H32.8566V78.0025C32.8566 77.8192 32.8108 77.6794 32.7191 77.5833C32.6297 77.4849 32.5078 77.4358 32.3536 77.4358C32.1949 77.4358 32.0686 77.4872 31.9747 77.59C31.8808 77.6906 31.8338 77.837 31.8338 78.0293V79.042H31.532V78.0025C31.532 77.8192 31.4862 77.6794 31.3946 77.5833C31.3051 77.4849 31.1833 77.4358 31.029 77.4358C30.8703 77.4358 30.744 77.4872 30.6501 77.59C30.5562 77.6906 30.5093 77.837 30.5093 78.0293V79.042H30.2041V77.2044H30.5093V77.4693C30.5696 77.3732 30.6501 77.2994 30.7507 77.248C30.8536 77.1966 30.9664 77.1709 31.0894 77.1709C31.2437 77.1709 31.38 77.2055 31.4985 77.2748C31.617 77.3441 31.7053 77.4458 31.7634 77.58C31.8148 77.4503 31.8998 77.3497 32.0183 77.2782C32.1367 77.2066 32.2686 77.1709 32.414 77.1709ZM33.5449 78.1165C33.5449 77.9287 33.5829 77.7644 33.6589 77.6235C33.7349 77.4805 33.8389 77.3698 33.9708 77.2916C34.1049 77.2133 34.2536 77.1742 34.4168 77.1742C34.5777 77.1742 34.7175 77.2089 34.8359 77.2782C34.9544 77.3475 35.0427 77.4346 35.1009 77.5397V77.2044H35.4094V79.042H35.1009V78.7C35.0405 78.8073 34.95 78.8967 34.8292 78.9682C34.7108 79.0375 34.5722 79.0722 34.4134 79.0722C34.2502 79.0722 34.1027 79.0319 33.9708 78.9515C33.8389 78.871 33.7349 78.7581 33.6589 78.6128C33.5829 78.4675 33.5449 78.302 33.5449 78.1165ZM35.1009 78.1198C35.1009 77.9812 35.0729 77.8605 35.017 77.7577C34.9611 77.6548 34.8851 77.5766 34.789 77.523C34.6951 77.4671 34.5912 77.4391 34.4771 77.4391C34.3631 77.4391 34.2592 77.4659 34.1653 77.5196C34.0714 77.5732 33.9965 77.6515 33.9406 77.7543C33.8847 77.8572 33.8568 77.9779 33.8568 78.1165C33.8568 78.2573 33.8847 78.3803 33.9406 78.4853C33.9965 78.5882 34.0714 78.6675 34.1653 78.7234C34.2592 78.7771 34.3631 78.8039 34.4771 78.8039C34.5912 78.8039 34.6951 78.7771 34.789 78.7234C34.8851 78.6675 34.9611 78.5882 35.017 78.4853C35.0729 78.3803 35.1009 78.2584 35.1009 78.1198ZM36.0826 76.9059C36.0245 76.9059 35.9753 76.8858 35.9351 76.8456C35.8949 76.8053 35.8747 76.7562 35.8747 76.698C35.8747 76.6399 35.8949 76.5907 35.9351 76.5505C35.9753 76.5103 36.0245 76.4901 36.0826 76.4901C36.1385 76.4901 36.1855 76.5103 36.2235 76.5505C36.2637 76.5907 36.2838 76.6399 36.2838 76.698C36.2838 76.7562 36.2637 76.8053 36.2235 76.8456C36.1855 76.8858 36.1385 76.9059 36.0826 76.9059ZM36.2302 77.2044V79.042H35.925V77.2044H36.2302ZM37.0554 76.5606V79.042H36.7503V76.5606H37.0554ZM37.6727 79.0621C37.6146 79.0621 37.5654 79.042 37.5252 79.0018C37.4849 78.9615 37.4648 78.9123 37.4648 78.8542C37.4648 78.7961 37.4849 78.7469 37.5252 78.7067C37.5654 78.6664 37.6146 78.6463 37.6727 78.6463C37.7286 78.6463 37.7756 78.6664 37.8136 78.7067C37.8538 78.7469 37.8739 78.7961 37.8739 78.8542C37.8739 78.9123 37.8538 78.9615 37.8136 79.0018C37.7756 79.042 37.7286 79.0621 37.6727 79.0621ZM38.1655 78.1198C38.1655 77.9298 38.2035 77.7644 38.2795 77.6235C38.3556 77.4805 38.4606 77.3698 38.5948 77.2916C38.7311 77.2133 38.8865 77.1742 39.0609 77.1742C39.2866 77.1742 39.4722 77.229 39.6175 77.3385C39.7651 77.4481 39.8623 77.6001 39.9092 77.7946H39.5806C39.5493 77.6828 39.4878 77.5945 39.3962 77.5297C39.3068 77.4648 39.195 77.4324 39.0609 77.4324C38.8865 77.4324 38.7457 77.4928 38.6383 77.6135C38.531 77.732 38.4774 77.9008 38.4774 78.1198C38.4774 78.3412 38.531 78.5122 38.6383 78.6329C38.7457 78.7536 38.8865 78.814 39.0609 78.814C39.195 78.814 39.3068 78.7827 39.3962 78.7201C39.4856 78.6575 39.5471 78.5681 39.5806 78.4518H39.9092C39.8601 78.6396 39.7617 78.7905 39.6142 78.9045C39.4666 79.0163 39.2822 79.0722 39.0609 79.0722C38.8865 79.0722 38.7311 79.0331 38.5948 78.9548C38.4606 78.8766 38.3556 78.7659 38.2795 78.6228C38.2035 78.4798 38.1655 78.3121 38.1655 78.1198ZM41.1178 79.0722C40.9457 79.0722 40.7892 79.0331 40.6484 78.9548C40.5098 78.8766 40.4002 78.7659 40.3198 78.6228C40.2415 78.4775 40.2024 78.3099 40.2024 78.1198C40.2024 77.9321 40.2426 77.7666 40.3231 77.6235C40.4058 77.4782 40.5176 77.3676 40.6584 77.2916C40.7993 77.2133 40.9569 77.1742 41.1313 77.1742C41.3056 77.1742 41.4632 77.2133 41.6041 77.2916C41.7449 77.3676 41.8556 77.4771 41.936 77.6202C42.0188 77.7633 42.0601 77.9298 42.0601 78.1198C42.0601 78.3099 42.0176 78.4775 41.9327 78.6228C41.85 78.7659 41.7371 78.8766 41.594 78.9548C41.4509 79.0331 41.2922 79.0722 41.1178 79.0722ZM41.1178 78.8039C41.2274 78.8039 41.3302 78.7782 41.4263 78.7268C41.5225 78.6754 41.5996 78.5982 41.6577 78.4954C41.7181 78.3926 41.7483 78.2674 41.7483 78.1198C41.7483 77.9723 41.7192 77.8471 41.6611 77.7443C41.603 77.6414 41.5269 77.5654 41.4331 77.5162C41.3392 77.4648 41.2374 77.4391 41.1279 77.4391C41.0161 77.4391 40.9133 77.4648 40.8194 77.5162C40.7277 77.5654 40.654 77.6414 40.5981 77.7443C40.5422 77.8471 40.5143 77.9723 40.5143 78.1198C40.5143 78.2696 40.5411 78.3959 40.5947 78.4988C40.6506 78.6016 40.7244 78.6787 40.816 78.7301C40.9077 78.7793 41.0083 78.8039 41.1178 78.8039ZM44.6712 77.1709C44.8142 77.1709 44.9417 77.201 45.0534 77.2614C45.1652 77.3195 45.2535 77.4078 45.3183 77.5263C45.3832 77.6448 45.4156 77.789 45.4156 77.9589V79.042H45.1138V78.0025C45.1138 77.8192 45.068 77.6794 44.9763 77.5833C44.8869 77.4849 44.765 77.4358 44.6108 77.4358C44.4521 77.4358 44.3258 77.4872 44.2319 77.59C44.138 77.6906 44.091 77.837 44.091 78.0293V79.042H43.7892V78.0025C43.7892 77.8192 43.7434 77.6794 43.6518 77.5833C43.5623 77.4849 43.4405 77.4358 43.2862 77.4358C43.1275 77.4358 43.0012 77.4872 42.9073 77.59C42.8134 77.6906 42.7665 77.837 42.7665 78.0293V79.042H42.4613V77.2044H42.7665V77.4693C42.8268 77.3732 42.9073 77.2994 43.0079 77.248C43.1108 77.1966 43.2236 77.1709 43.3466 77.1709C43.5009 77.1709 43.6372 77.2055 43.7557 77.2748C43.8742 77.3441 43.9625 77.4458 44.0206 77.58C44.072 77.4503 44.157 77.3497 44.2755 77.2782C44.3939 77.2066 44.5258 77.1709 44.6712 77.1709Z" fill="#333333"/>
<path d="M10.7264 84.4408V84.1625H11.3568V86.5869H11.0483V84.4408H10.7264ZM11.8441 86.3421C12.128 86.1141 12.3505 85.9274 12.5114 85.7821C12.6724 85.6346 12.8076 85.4814 12.9172 85.3227C13.0289 85.1618 13.0848 85.0042 13.0848 84.8499C13.0848 84.7046 13.0491 84.5906 12.9775 84.5079C12.9082 84.4229 12.7953 84.3804 12.6388 84.3804C12.4868 84.3804 12.3684 84.4285 12.2834 84.5246C12.2007 84.6185 12.156 84.7448 12.1493 84.9036H11.8542C11.8631 84.6532 11.9391 84.4598 12.0822 84.3234C12.2253 84.1871 12.4097 84.1189 12.6355 84.1189C12.8658 84.1189 13.048 84.1826 13.1821 84.31C13.3185 84.4375 13.3866 84.6129 13.3866 84.8365C13.3866 85.022 13.3307 85.2031 13.219 85.3797C13.1094 85.5541 12.9842 85.7084 12.8434 85.8425C12.7026 85.9744 12.5226 86.1286 12.3035 86.3052H13.4571V86.5601H11.8441V86.3421ZM13.736 86.047V85.8157L14.913 84.186H15.2785V85.7821H15.6139V86.047H15.2785V86.5869H14.9767V86.047H13.736ZM14.9902 84.5045L14.0881 85.7821H14.9902V84.5045ZM17.2433 85.2288V85.487H15.9053V85.2288H17.2433ZM19.117 84.7392C19.0678 84.4911 18.9147 84.367 18.6576 84.367C18.4587 84.367 18.31 84.4442 18.2116 84.5984C18.1133 84.7504 18.0652 85.0019 18.0674 85.3529C18.1189 85.2367 18.2038 85.1461 18.3223 85.0813C18.443 85.0142 18.5771 84.9807 18.7247 84.9807C18.9549 84.9807 19.1383 85.0522 19.2746 85.1953C19.4132 85.3384 19.4825 85.5362 19.4825 85.7888C19.4825 85.9408 19.4523 86.0772 19.392 86.1979C19.3339 86.3187 19.2444 86.4148 19.1237 86.4863C19.0052 86.5579 18.8611 86.5936 18.6912 86.5936C18.4609 86.5936 18.2809 86.5422 18.1513 86.4394C18.0216 86.3365 17.9311 86.1946 17.8797 86.0135C17.8282 85.8324 17.8025 85.6089 17.8025 85.3428C17.8025 84.5224 18.0887 84.1122 18.661 84.1122C18.8801 84.1122 19.0522 84.1714 19.1774 84.2899C19.3026 84.4084 19.3763 84.5582 19.3987 84.7392H19.117ZM18.661 85.2389C18.5648 85.2389 18.4743 85.259 18.3894 85.2992C18.3044 85.3373 18.2351 85.3965 18.1814 85.477C18.13 85.5552 18.1043 85.6513 18.1043 85.7654C18.1043 85.9353 18.1535 86.0739 18.2519 86.1812C18.3502 86.2862 18.4911 86.3388 18.6744 86.3388C18.8309 86.3388 18.9549 86.2907 19.0466 86.1946C19.1405 86.0962 19.1874 85.9643 19.1874 85.7989C19.1874 85.6245 19.1427 85.4882 19.0533 85.3898C18.9639 85.2892 18.8331 85.2389 18.661 85.2389ZM21.3864 84.4006L20.4542 86.5869H20.1457L21.0913 84.4307H19.797V84.1692H21.3864V84.4006ZM23.2706 84.4274H22.0936V85.1919C22.145 85.1204 22.221 85.0623 22.3216 85.0176C22.4222 84.9706 22.5307 84.9472 22.6469 84.9472C22.8325 84.9472 22.9834 84.9863 23.0996 85.0645C23.2159 85.1405 23.2986 85.24 23.3477 85.363C23.3992 85.4837 23.4249 85.6122 23.4249 85.7486C23.4249 85.9095 23.3947 86.0537 23.3343 86.1812C23.274 86.3086 23.1812 86.4092 23.056 86.483C22.9331 86.5567 22.7799 86.5936 22.5966 86.5936C22.3619 86.5936 22.1719 86.5333 22.0266 86.4125C21.8812 86.2918 21.7929 86.1309 21.7616 85.9297H22.0601C22.0891 86.0571 22.1506 86.1566 22.2445 86.2281C22.3384 86.2996 22.4569 86.3354 22.6 86.3354C22.7766 86.3354 22.9096 86.2829 22.999 86.1778C23.0884 86.0705 23.1331 85.9297 23.1331 85.7553C23.1331 85.5809 23.0884 85.4468 22.999 85.3529C22.9096 85.2568 22.7777 85.2087 22.6033 85.2087C22.4848 85.2087 22.3809 85.2378 22.2915 85.2959C22.2043 85.3518 22.1406 85.4289 22.1003 85.5273H21.8119V84.1591H23.2706V84.4274ZM25.1549 85.2288V85.487H23.817V85.2288H25.1549ZM26.12 85.3261C25.9948 85.2769 25.8986 85.2054 25.8316 85.1115C25.7645 85.0176 25.731 84.9036 25.731 84.7694C25.731 84.6487 25.7612 84.5403 25.8215 84.4442C25.8819 84.3458 25.9713 84.2687 26.0898 84.2128C26.2105 84.1547 26.3558 84.1256 26.5257 84.1256C26.6956 84.1256 26.8398 84.1547 26.9583 84.2128C27.079 84.2687 27.1695 84.3458 27.2299 84.4442C27.2925 84.5403 27.3238 84.6487 27.3238 84.7694C27.3238 84.8991 27.2891 85.0131 27.2198 85.1115C27.1505 85.2076 27.0555 85.2791 26.9348 85.3261C27.0734 85.3686 27.1829 85.4434 27.2634 85.5507C27.3461 85.6558 27.3875 85.7832 27.3875 85.933C27.3875 86.0783 27.3517 86.2058 27.2802 86.3153C27.2087 86.4226 27.1069 86.5064 26.975 86.5668C26.8454 86.6249 26.6956 86.654 26.5257 86.654C26.3558 86.654 26.206 86.6249 26.0764 86.5668C25.9489 86.5064 25.8495 86.4226 25.7779 86.3153C25.7064 86.2058 25.6706 86.0783 25.6706 85.933C25.6706 85.7832 25.7109 85.6547 25.7913 85.5474C25.8718 85.4401 25.9813 85.3663 26.12 85.3261ZM27.0287 84.8063C27.0287 84.6699 26.984 84.5649 26.8946 84.4911C26.8051 84.4173 26.6822 84.3804 26.5257 84.3804C26.3714 84.3804 26.2496 84.4173 26.1602 84.4911C26.0708 84.5649 26.0261 84.6711 26.0261 84.8097C26.0261 84.9349 26.0719 85.0355 26.1635 85.1115C26.2574 85.1875 26.3782 85.2255 26.5257 85.2255C26.6755 85.2255 26.7962 85.1875 26.8879 85.1115C26.9817 85.0332 27.0287 84.9315 27.0287 84.8063ZM26.5257 85.4602C26.3603 85.4602 26.225 85.4993 26.12 85.5776C26.0149 85.6536 25.9623 85.7687 25.9623 85.923C25.9623 86.066 26.0126 86.1812 26.1132 86.2684C26.2161 86.3555 26.3536 86.3991 26.5257 86.3991C26.6978 86.3991 26.8342 86.3555 26.9348 86.2684C27.0354 86.1812 27.0857 86.066 27.0857 85.923C27.0857 85.7732 27.0343 85.6592 26.9314 85.5809C26.8286 85.5004 26.6934 85.4602 26.5257 85.4602ZM29.285 84.4006L28.3528 86.5869H28.0443L28.9899 84.4307H27.6955V84.1692H29.285V84.4006ZM29.5496 86.047V85.8157L30.7266 84.186H31.0921V85.7821H31.4274V86.047H31.0921V86.5869H30.7903V86.047H29.5496ZM30.8037 84.5045L29.9017 85.7821H30.8037V84.5045ZM31.6585 86.047V85.8157L32.8355 84.186H33.201V85.7821H33.5363V86.047H33.201V86.5869H32.8992V86.047H31.6585ZM32.9126 84.5045L32.0106 85.7821H32.9126V84.5045Z" fill="#333333"/>
<path opacity="0.5" d="M13.3042 68.5618V71.2612H13.0304V69.1056L12.068 71.2612H11.8684L10.906 69.1134V71.2612H10.6322V68.5618H10.9217L11.9662 70.9013L13.0108 68.5618H13.3042ZM13.8003 70.1893C13.8003 69.9702 13.8433 69.7785 13.9294 69.6142C14.018 69.4473 14.1393 69.3195 14.2932 69.2308C14.4497 69.1395 14.6257 69.0939 14.8213 69.0939C15.0248 69.0939 15.1995 69.1408 15.3456 69.2347C15.4942 69.3286 15.6012 69.4486 15.6664 69.5946V69.1252H15.9402V71.2612H15.6664V70.7879C15.5986 70.9339 15.4903 71.0552 15.3417 71.1517C15.1956 71.2456 15.0209 71.2925 14.8174 71.2925C14.6244 71.2925 14.4497 71.2469 14.2932 71.1556C14.1393 71.0643 14.018 70.9352 13.9294 70.7683C13.8433 70.6014 13.8003 70.4084 13.8003 70.1893ZM15.6664 70.1932C15.6664 70.0211 15.6312 69.8698 15.5607 69.7394C15.4903 69.609 15.3938 69.5086 15.2712 69.4382C15.1513 69.3677 15.0182 69.3325 14.8722 69.3325C14.7209 69.3325 14.5853 69.3664 14.4653 69.4342C14.3454 69.5021 14.2502 69.6012 14.1797 69.7316C14.1119 69.8594 14.078 70.0119 14.078 70.1893C14.078 70.364 14.1119 70.5179 14.1797 70.6509C14.2502 70.7813 14.3454 70.8817 14.4653 70.9522C14.5853 71.02 14.7209 71.0539 14.8722 71.0539C15.0182 71.0539 15.1513 71.0187 15.2712 70.9483C15.3938 70.8778 15.4903 70.7774 15.5607 70.647C15.6312 70.5166 15.6664 70.3653 15.6664 70.1932ZM16.8393 69.5047C16.8992 69.3716 16.9905 69.2686 17.1131 69.1956C17.2383 69.1226 17.3909 69.0861 17.5708 69.0861V69.3716H17.4965C17.2983 69.3716 17.1392 69.4251 17.0192 69.532C16.8992 69.639 16.8393 69.8176 16.8393 70.068V71.2612H16.5654V69.1252H16.8393V69.5047ZM19.1369 71.2612L18.2567 70.3027V71.2612H17.9828V68.3662H18.2567V70.0798L19.1173 69.1252H19.5007L18.4875 70.1893L19.5085 71.2612H19.1369ZM21.7951 70.0837C21.7951 70.1776 21.7925 70.2493 21.7873 70.2988H20.0151C20.0229 70.4605 20.062 70.5988 20.1324 70.7135C20.2028 70.8283 20.2954 70.9157 20.4102 70.9756C20.5249 71.033 20.6501 71.0617 20.7858 71.0617C20.9631 71.0617 21.1118 71.0187 21.2317 70.9326C21.3543 70.8465 21.4352 70.7305 21.4743 70.5844H21.7638C21.7116 70.7931 21.5995 70.9639 21.4273 71.0969C21.2578 71.2273 21.044 71.2925 20.7858 71.2925C20.5849 71.2925 20.405 71.2482 20.2459 71.1595C20.0868 71.0682 19.9616 70.9404 19.8703 70.7761C19.7816 70.6092 19.7373 70.4149 19.7373 70.1932C19.7373 69.9715 19.7816 69.7772 19.8703 69.6103C19.959 69.4434 20.0829 69.3156 20.242 69.2269C20.4011 69.1382 20.5823 69.0939 20.7858 69.0939C20.9892 69.0939 21.1665 69.1382 21.3178 69.2269C21.4717 69.3156 21.5891 69.4355 21.6699 69.5868C21.7534 69.7355 21.7951 69.9011 21.7951 70.0837ZM21.5173 70.0758C21.5199 69.9167 21.4873 69.7811 21.4195 69.669C21.3543 69.5568 21.2643 69.4721 21.1496 69.4147C21.0348 69.3573 20.9096 69.3286 20.774 69.3286C20.5706 69.3286 20.3971 69.3938 20.2537 69.5242C20.1102 69.6546 20.0307 69.8385 20.0151 70.0758H21.5173ZM22.6521 69.356V70.6822C22.6521 70.8126 22.6769 70.9026 22.7265 70.9522C22.776 71.0017 22.8634 71.0265 22.9886 71.0265H23.239V71.2612H22.9455C22.7525 71.2612 22.6091 71.2169 22.5152 71.1282C22.4213 71.0369 22.3744 70.8883 22.3744 70.6822V69.356H22.077V69.1252H22.3744V68.5892H22.6521V69.1252H23.239V69.356H22.6521ZM23.8275 68.7222C23.7728 68.7222 23.7258 68.7027 23.6867 68.6635C23.6476 68.6244 23.628 68.5762 23.628 68.5188C23.628 68.4614 23.6476 68.4145 23.6867 68.378C23.7258 68.3388 23.7728 68.3193 23.8275 68.3193C23.8823 68.3193 23.9292 68.3388 23.9684 68.378C24.0075 68.4145 24.0271 68.4614 24.0271 68.5188C24.0271 68.5762 24.0075 68.6244 23.9684 68.6635C23.9292 68.7027 23.8823 68.7222 23.8275 68.7222ZM23.9645 69.1252V71.2612H23.6906V69.1252H23.9645ZM25.5861 69.0861C25.8417 69.0861 26.0504 69.1656 26.2121 69.3247C26.3738 69.4812 26.4546 69.7094 26.4546 70.0093V71.2612H26.1847V70.0406C26.1847 69.8085 26.126 69.6312 26.0086 69.5086C25.8939 69.386 25.7361 69.3247 25.5353 69.3247C25.3292 69.3247 25.1649 69.3899 25.0423 69.5203C24.9197 69.6507 24.8584 69.8424 24.8584 70.0954V71.2612H24.5846V69.1252H24.8584V69.489C24.9263 69.3586 25.0241 69.2595 25.1519 69.1917C25.2797 69.1213 25.4244 69.0861 25.5861 69.0861ZM27.9562 69.0939C28.157 69.0939 28.3317 69.1408 28.4804 69.2347C28.6291 69.3286 28.736 69.4473 28.8012 69.5907V69.1252H29.075V71.316C29.075 71.5116 29.032 71.685 28.9459 71.8363C28.8625 71.9876 28.7451 72.1037 28.5938 72.1845C28.4426 72.268 28.2704 72.3097 28.0774 72.3097C27.8036 72.3097 27.5754 72.2445 27.3928 72.1141C27.2128 71.9837 27.1007 71.8063 27.0564 71.582H27.3263C27.3732 71.7307 27.4619 71.8494 27.5923 71.938C27.7253 72.0267 27.887 72.0711 28.0774 72.0711C28.2157 72.0711 28.3396 72.0411 28.4491 71.9811C28.5586 71.9237 28.6447 71.8376 28.7073 71.7229C28.7699 71.6081 28.8012 71.4725 28.8012 71.316V70.7879C28.7334 70.9339 28.6251 71.0552 28.4765 71.1517C28.3304 71.2456 28.157 71.2925 27.9562 71.2925C27.7606 71.2925 27.5845 71.2469 27.428 71.1556C27.2741 71.0643 27.1529 70.9352 27.0642 70.7683C26.9781 70.6014 26.9351 70.4084 26.9351 70.1893C26.9351 69.9702 26.9781 69.7785 27.0642 69.6142C27.1529 69.4473 27.2741 69.3195 27.428 69.2308C27.5845 69.1395 27.7606 69.0939 27.9562 69.0939ZM28.8012 70.1932C28.8012 70.0211 28.766 69.8698 28.6956 69.7394C28.6251 69.609 28.5286 69.5086 28.4061 69.4382C28.2861 69.3677 28.1531 69.3325 28.007 69.3325C27.8557 69.3325 27.7201 69.3664 27.6002 69.4342C27.4802 69.5021 27.385 69.6012 27.3146 69.7316C27.2468 69.8594 27.2128 70.0119 27.2128 70.1893C27.2128 70.364 27.2468 70.5179 27.3146 70.6509C27.385 70.7813 27.4802 70.8817 27.6002 70.9522C27.7201 71.02 27.8557 71.0539 28.007 71.0539C28.1531 71.0539 28.2861 71.0187 28.4061 70.9483C28.5286 70.8778 28.6251 70.7774 28.6956 70.647C28.766 70.5166 28.8012 70.3653 28.8012 70.1932Z" fill="#333333"/>
<g clip-path="url(#clip0_1116:5554)">
<path d="M80.4354 84.3173C80.4356 85.2337 81.1021 86.014 82.0072 86.1577V84.8557H81.5346V84.3173H82.0077V83.9074C81.9866 83.7132 82.0529 83.5197 82.1888 83.3793C82.3246 83.2389 82.5158 83.1662 82.7106 83.1809C82.8505 83.1831 82.9899 83.1956 83.1279 83.2181V83.6762H82.8925C82.8114 83.6656 82.7299 83.6924 82.6709 83.749C82.6119 83.8056 82.5819 83.886 82.5892 83.9674V84.3173H83.1054L83.0229 84.8559H82.5892V86.1577C83.568 86.003 84.2545 85.109 84.1512 84.1234C84.0478 83.1377 83.191 82.4055 82.2013 82.4572C81.2116 82.5088 80.4356 83.3262 80.4354 84.3173Z" fill="#333333"/>
</g>
<g clip-path="url(#clip1_1116:5554)">
<path d="M90.6671 83.4571C90.8341 83.3573 90.9591 83.2001 91.0187 83.0149C90.8617 83.108 90.69 83.1736 90.511 83.2088C90.2628 82.9462 89.8695 82.8823 89.5509 83.0528C89.2323 83.2233 89.0673 83.5859 89.1481 83.9381C88.5053 83.9059 87.9064 83.6022 87.5005 83.1028C87.2886 83.4682 87.3969 83.9353 87.7479 84.1703C87.621 84.1662 87.4969 84.1318 87.3859 84.07C87.3859 84.0734 87.3859 84.0767 87.3859 84.0801C87.386 84.4607 87.6543 84.7886 88.0273 84.864C87.9096 84.896 87.7861 84.9008 87.6663 84.8778C87.7712 85.2033 88.0712 85.4263 88.4131 85.433C88.1299 85.6552 87.7802 85.7758 87.4202 85.7752C87.3564 85.7753 87.2926 85.7716 87.2292 85.7642C87.5948 85.9991 88.0203 86.1238 88.4549 86.1234C89.0594 86.1275 89.6405 85.8892 90.0679 85.4617C90.4954 85.0341 90.7337 84.4531 90.7295 83.8485C90.7295 83.8139 90.7287 83.7794 90.7271 83.7451C90.8837 83.632 91.0188 83.4918 91.1261 83.3312C90.9803 83.3958 90.8256 83.4383 90.6671 83.4571Z" fill="#333333"/>
</g>
<g clip-path="url(#clip2_1116:5554)">
<path d="M74.7597 86.0729C74.383 86.0729 74.0434 85.846 73.8992 85.4979C73.755 85.1499 73.8347 84.7493 74.101 84.4829L74.4963 84.0876L74.7597 84.351L74.3646 84.7461C74.2234 84.8873 74.1683 85.0931 74.2199 85.286C74.2716 85.4789 74.4223 85.6295 74.6151 85.6812C74.808 85.7329 75.0138 85.6777 75.155 85.5365L75.5501 85.1414L75.8136 85.405L75.4184 85.8001C75.2441 85.9754 75.0069 86.0736 74.7597 86.0729ZM74.8914 85.2731L74.628 85.0097L75.9453 83.6925L76.2087 83.9559L74.8916 85.2729L74.8914 85.2731ZM76.3406 84.878L76.077 84.6146L76.4721 84.2195C76.6152 84.0787 76.6718 83.872 76.6204 83.6779C76.569 83.4839 76.4175 83.3323 76.2234 83.2808C76.0294 83.2294 75.8227 83.286 75.6819 83.429L75.2865 83.8242L75.0231 83.5608L75.4184 83.1654C75.7826 82.8044 76.3702 82.8057 76.7328 83.1683C77.0954 83.531 77.0967 84.1185 76.7357 84.4827L76.3406 84.8778V84.878Z" fill="#333333"/>
</g>
</g>
<defs>
<clipPath id="clip0_1116:5554">
<rect width="4.47106" height="4.47106" fill="white" transform="translate(80.0625 82.0815)"/>
</clipPath>
<clipPath id="clip1_1116:5554">
<rect width="4.47106" height="4.47106" fill="white" transform="translate(86.9421 82.2109)"/>
</clipPath>
<clipPath id="clip2_1116:5554">
<rect width="4.47097" height="4.47097" fill="white" transform="translate(73.1827 82.2476)"/>
</clipPath>
</defs>
</svg>
