<svg width="16" height="16" viewBox="0 0 16 16" fill="none" xmlns="http://www.w3.org/2000/svg">
<path d="M2.08887 7.87562C2.08959 10.9195 4.30305 13.5113 7.30937 13.9884V9.66384H5.73957V7.87562H7.31122V6.51434C7.24096 5.8693 7.46129 5.22644 7.91244 4.76011C8.36359 4.29377 8.99881 4.05229 9.64581 4.10117C10.1102 4.10867 10.5735 4.15003 11.0318 4.22492V5.74646H10.2497C9.98047 5.71119 9.70977 5.80012 9.51387 5.98819C9.31798 6.17626 9.21811 6.44311 9.24238 6.71358V7.87562H10.957L10.6829 9.66446H9.24238V13.9884C12.4937 13.4745 14.7736 10.5052 14.4304 7.23153C14.0872 3.95784 11.2412 1.52583 7.95401 1.69738C4.66686 1.86894 2.08939 4.58399 2.08887 7.87562Z" fill="#333333"/>
</svg>
