<svg width="13" height="13" viewBox="0 0 13 13" fill="none" xmlns="http://www.w3.org/2000/svg">
<path d="M0.0888672 6.42603C0.0895871 9.46996 2.30305 12.0617 5.30937 12.5388V8.21426H3.73957V6.42603H5.31122V5.06475C5.24096 4.41972 5.46129 3.77686 5.91244 3.31052C6.36359 2.84418 6.99881 2.60271 7.64581 2.65158C8.11022 2.65908 8.57345 2.70044 9.03184 2.77533V4.29687H8.24973C7.98047 4.2616 7.70977 4.35053 7.51387 4.5386C7.31798 4.72667 7.21811 4.99353 7.24238 5.264V6.42603H8.95697L8.68286 8.21487H7.24238V12.5388C10.4937 12.025 12.7736 9.05564 12.4304 5.78195C12.0872 2.50826 9.24116 0.0762482 5.95401 0.2478C2.66686 0.419351 0.0893897 3.13441 0.0888672 6.42603Z" fill="#333333"/>
</svg>
