<svg width="25" height="24" viewBox="0 0 25 24" fill="none" xmlns="http://www.w3.org/2000/svg">
<rect x="0.5" width="24" height="24" rx="12" fill="white"/>
<g clip-path="url(#clip0)">
<path d="M19.75 12.1666C19.75 11.55 19.7006 11.1 19.5938 10.6333H12.6479V13.4166H16.725C16.6429 14.1083 16.199 15.1499 15.2126 15.8499L15.1987 15.9431L17.3949 17.6679L17.547 17.6833C18.9444 16.3749 19.75 14.4499 19.75 12.1666Z" fill="#4285F4"/>
<path d="M12.6474 19.4999C14.6449 19.4999 16.3217 18.8332 17.5465 17.6833L15.2121 15.8499C14.5874 16.2916 13.7489 16.5999 12.6474 16.5999C10.6911 16.5999 9.03069 15.2916 8.43879 13.4833L8.35203 13.4907L6.06844 15.2824L6.03857 15.3666C7.25512 17.8166 9.75399 19.4999 12.6474 19.4999Z" fill="#34A853"/>
<path d="M8.43932 13.4833C8.28314 13.0167 8.19276 12.5166 8.19276 12C8.19276 11.4833 8.28314 10.9833 8.4311 10.5166L8.42696 10.4173L6.11475 8.5968L6.0391 8.63328C5.5377 9.64996 5.25 10.7916 5.25 12C5.25 13.2083 5.5377 14.3499 6.0391 15.3666L8.43932 13.4833Z" fill="#FBBC05"/>
<path d="M12.6475 7.39998C14.0366 7.39998 14.9737 8.00831 15.508 8.51667L17.5959 6.45C16.3136 5.24167 14.6449 4.5 12.6475 4.5C9.754 4.5 7.25512 6.18332 6.03857 8.6333L8.43058 10.5167C9.03069 8.70832 10.6911 7.39998 12.6475 7.39998Z" fill="#EB4335"/>
</g>
<defs>
<clipPath id="clip0">
<rect width="15" height="15" fill="white" transform="translate(5 4.5)"/>
</clipPath>
</defs>
</svg>
