<svg width="19" height="20" viewBox="0 0 19 20" fill="none" xmlns="http://www.w3.org/2000/svg">
<path fill-rule="evenodd" clip-rule="evenodd" d="M10.5021 13.3798C11.5556 13.3798 12.4131 14.2312 12.4131 15.2777V17.9692C12.4131 18.1941 12.5934 18.3743 12.8244 18.3796H14.4921C15.8064 18.3796 16.8748 17.3243 16.8748 16.0276V8.39409C16.8686 7.94784 16.656 7.52784 16.2911 7.24872L10.5223 2.64797C9.74788 2.03459 8.66463 2.03459 7.88763 2.64972L2.15813 7.24697C1.77926 7.53484 1.56663 7.95484 1.56226 8.40897V16.0276C1.56226 17.3243 2.63063 18.3796 3.94488 18.3796H5.62838C5.8655 18.3796 6.058 18.1915 6.058 17.9605C6.058 17.9097 6.06413 17.859 6.07463 17.8108V15.2777C6.07463 14.2373 6.92688 13.3868 7.97251 13.3798H10.5021ZM14.4921 19.6921H12.8086C11.8444 19.6693 11.1006 18.9125 11.1006 17.9692V15.2777C11.1006 14.9548 10.832 14.6923 10.5021 14.6923H7.97688C7.65401 14.6941 7.38713 14.9575 7.38713 15.2777V17.9605C7.38713 18.0261 7.37838 18.0891 7.36001 18.1486C7.26551 19.0148 6.52525 19.6921 5.62838 19.6921H3.94488C1.90701 19.6921 0.249756 18.048 0.249756 16.0276V8.40285C0.258506 7.53309 0.659256 6.73684 1.35138 6.21272L7.0695 1.62334C8.32863 0.625844 10.083 0.625844 11.3395 1.62159L17.0988 6.21534C17.7751 6.73072 18.1759 7.52522 18.1873 8.38447V16.0276C18.1873 18.048 16.53 19.6921 14.4921 19.6921Z" fill="#316F8A"/>
</svg>
