<svg width="26" height="26" viewBox="0 0 26 26" fill="none" xmlns="http://www.w3.org/2000/svg">
<path d="M12.9949 23.1562C14.5742 23.1562 15.4375 22.0391 15.4375 20.4648H10.5472C10.5472 22.0391 11.4105 23.1562 12.9949 23.1562Z" fill="white"/>
<path d="M20.9219 17.8852C20.1399 16.8544 18.6012 16.2501 18.6012 11.6341C18.6012 6.89618 16.509 4.99188 14.559 4.53485C14.3762 4.48915 14.2442 4.42821 14.2442 4.23524V4.08797C14.2442 3.4075 13.6856 2.83368 13.0051 2.83875C12.3246 2.8286 11.766 3.4075 11.766 4.08797V4.23524C11.766 4.42313 11.634 4.48915 11.4512 4.53485C9.49613 4.99696 7.40902 6.89618 7.40902 11.6341C7.40902 16.2501 5.87035 16.8493 5.08831 17.8852C4.58558 18.5505 5.06292 19.5001 5.89574 19.5001H20.1196C20.9473 19.5001 21.4246 18.5454 20.9219 17.8852Z" fill="white"/>
</svg>
