<svg width="15" height="15" viewBox="0 0 15 15" fill="none" xmlns="http://www.w3.org/2000/svg">
<path d="M5.23772 12.706C3.98651 12.706 2.85849 11.9523 2.37959 10.7964C1.90069 9.64043 2.16521 8.30984 3.04982 7.42497L4.36281 6.11198L5.23772 6.98689L3.92535 8.29926C3.45638 8.76824 3.27322 9.45178 3.44488 10.0924C3.61653 10.733 4.11692 11.2334 4.75756 11.4051C5.39819 11.5767 6.08173 11.3936 6.55071 10.9246L7.86308 9.61225L8.73799 10.4878L7.42562 11.8001C6.84652 12.3821 6.05871 12.7083 5.23772 12.706ZM5.67518 10.0497L4.80026 9.17479L9.17545 4.79961L10.0504 5.67452L5.6758 10.0491L5.67518 10.0497ZM10.4884 8.73734L9.6129 7.86242L10.9253 6.55005C11.4006 6.08248 11.5887 5.39588 11.4179 4.75134C11.2472 4.10679 10.7439 3.60335 10.0994 3.43245C9.45487 3.26155 8.76822 3.44945 8.30053 3.9247L6.98755 5.23707L6.11263 4.36215L7.42562 3.04917C8.63533 1.85001 10.5868 1.85428 11.7912 3.05873C12.9957 4.26317 13 6.21464 11.8008 7.42435L10.4884 8.73672V8.73734Z" fill="#333333"/>
</svg>
