<svg width="11" height="12" viewBox="0 0 11 12" fill="none" xmlns="http://www.w3.org/2000/svg">
<path d="M5.50004 5.99935C4.85837 5.99935 4.33337 5.47435 4.33337 4.83268C4.33337 4.19102 4.85837 3.66602 5.50004 3.66602C6.14171 3.66602 6.66671 4.19102 6.66671 4.83268C6.66671 5.47435 6.14171 5.99935 5.50004 5.99935ZM9.00004 4.94935C9.00004 2.83185 7.45421 1.33268 5.50004 1.33268C3.54587 1.33268 2.00004 2.83185 2.00004 4.94935C2.00004 6.31435 3.13754 8.12268 5.50004 10.281C7.86254 8.12268 9.00004 6.31435 9.00004 4.94935ZM5.50004 0.166016C7.95004 0.166016 10.1667 2.04435 10.1667 4.94935C10.1667 6.88602 8.60921 9.17852 5.50004 11.8327C2.39087 9.17852 0.833374 6.88602 0.833374 4.94935C0.833374 2.04435 3.05004 0.166016 5.50004 0.166016Z" fill="#333333" fill-opacity="0.51"/>
</svg>
