<svg width="20" height="13" viewBox="0 0 20 13" fill="none" xmlns="http://www.w3.org/2000/svg">
<path fill-rule="evenodd" clip-rule="evenodd" d="M13.4364 12.3565C16.5769 12.3565 19.1228 9.78106 19.1228 6.60405C19.1228 3.42704 16.5769 0.851562 13.4364 0.851562C12.0287 0.851562 10.7406 1.36896 9.74754 2.22601C8.7546 1.36925 7.46664 0.852051 6.05928 0.852051C2.91872 0.852051 0.372803 3.42753 0.372803 6.60454C0.372803 9.78155 2.91872 12.357 6.05928 12.357C7.46691 12.357 8.75509 11.8396 9.7481 10.9826C10.741 11.8393 12.029 12.3565 13.4364 12.3565Z" fill="#ED0006"/>
<path fill-rule="evenodd" clip-rule="evenodd" d="M9.7478 10.9823C10.9705 9.92723 11.7457 8.35723 11.7457 6.60405C11.7457 4.85087 10.9705 3.28087 9.7478 2.22576C10.7408 1.36886 12.0288 0.851562 13.4363 0.851562C16.5769 0.851562 19.1228 3.42704 19.1228 6.60405C19.1228 9.78106 16.5769 12.3565 13.4363 12.3565C12.0288 12.3565 10.7408 11.8392 9.7478 10.9823Z" fill="#F9A000"/>
<path fill-rule="evenodd" clip-rule="evenodd" d="M9.74792 10.9831C10.9706 9.92798 11.7458 8.35799 11.7458 6.60483C11.7458 4.85166 10.9706 3.28167 9.74792 2.22656C8.52527 3.28167 7.75 4.85166 7.75 6.60483C7.75 8.35799 8.52527 9.92798 9.74792 10.9831Z" fill="#FF5E00"/>
</svg>
