<svg width="43" height="43" viewBox="0 0 43 43" fill="none" xmlns="http://www.w3.org/2000/svg">
<g clip-path="url(#clip0)">
<path d="M41.6353 29.4832C40.7571 30.3592 39.5666 30.8502 38.3261 30.8479H4.674C3.43351 30.8501 2.24307 30.3592 1.36487 29.4832L16.6205 14.2275L19.2005 16.0971C20.5673 17.1068 22.4329 17.1068 23.7996 16.0971L26.3796 14.2275L41.6353 29.4832Z" fill="#FFA000"/>
<path d="M42.1027 2.86046L26.3797 14.2274L23.7997 16.097C22.4329 17.1067 20.5673 17.1067 19.2005 16.097L16.6205 14.2274L0.878784 2.87921C1.75435 1.65477 3.16871 0.930105 4.67403 0.934837H38.3262C39.8205 0.936152 41.224 1.65179 42.1027 2.86046Z" fill="#FFD54F"/>
<path d="M0.878399 2.88037L16.6202 14.2286L1.36451 29.4842C0.488507 28.606 -0.00251629 27.4156 -0.000325391 26.1751V5.60988C-0.00444427 4.62984 0.303245 3.67391 0.878399 2.88037Z" fill="#FFC107"/>
<path d="M42.9999 5.60861V26.1738C43.0021 27.4143 42.5112 28.6048 41.6352 29.483L26.3795 14.2273L42.1025 2.86035C42.6863 3.65775 43.0005 4.62043 42.9999 5.60861Z" fill="#FFC107"/>
<path d="M21.5001 42.0651C27.179 42.0651 31.7827 37.4615 31.7827 31.7826C31.7827 26.1037 27.179 21.5 21.5001 21.5C15.8212 21.5 11.2175 26.1037 11.2175 31.7826C11.2175 37.4615 15.8212 42.0651 21.5001 42.0651Z" fill="white"/>
<path d="M19.6303 36.4565C19.3822 36.457 19.1441 36.3588 18.9685 36.1836L15.2293 32.4444C14.8706 32.0731 14.881 31.4813 15.2523 31.1226C15.6146 30.7727 16.1889 30.7727 16.5511 31.1226L19.6303 34.2L25.512 28.3183C25.8833 27.9596 26.4751 27.97 26.8338 28.3413C27.1837 28.7036 27.1837 29.2778 26.8338 29.6401L20.2903 36.1836C20.1151 36.3584 19.8778 36.4565 19.6303 36.4565Z" fill="#209AD7"/>
</g>
<defs>
<clipPath id="clip0">
<rect width="43" height="43" fill="white"/>
</clipPath>
</defs>
</svg>
