<svg width="22" height="22" viewBox="0 0 22 22" fill="none" xmlns="http://www.w3.org/2000/svg">
<path fill-rule="evenodd" clip-rule="evenodd" d="M10.7484 0C13.6214 0 16.3214 1.117 18.3494 3.146C22.5414 7.338 22.5414 14.158 18.3494 18.35C16.2944 20.406 13.5274 21.494 10.7244 21.494C9.19638 21.494 7.65838 21.171 6.21938 20.505C5.79538 20.335 5.39838 20.175 5.11338 20.175C4.78538 20.177 4.34438 20.329 3.91838 20.476C3.04438 20.776 1.95638 21.15 1.15138 20.348C0.349376 19.545 0.719376 18.46 1.01738 17.587C1.16438 17.157 1.31538 16.713 1.31538 16.377C1.31538 16.101 1.18238 15.749 0.978376 15.242C-0.894624 11.197 -0.0286238 6.322 3.14838 3.147C5.17638 1.118 7.87538 0 10.7484 0ZM10.7494 1.5C8.27638 1.5 5.95338 2.462 4.20838 4.208C1.47438 6.94 0.730376 11.135 2.35538 14.648C2.58938 15.227 2.81538 15.791 2.81538 16.377C2.81538 16.962 2.61438 17.551 2.43738 18.071C2.29138 18.499 2.07038 19.145 2.21238 19.287C2.35138 19.431 3.00138 19.204 3.43038 19.057C3.94538 18.881 4.52938 18.679 5.10838 18.675C5.68838 18.675 6.23538 18.895 6.81438 19.128C10.3614 20.768 14.5564 20.022 17.2894 17.29C20.8954 13.682 20.8954 7.813 17.2894 4.207C15.5434 2.461 13.2214 1.5 10.7494 1.5ZM14.6963 10.1627C15.2483 10.1627 15.6963 10.6097 15.6963 11.1627C15.6963 11.7157 15.2483 12.1627 14.6963 12.1627C14.1443 12.1627 13.6923 11.7157 13.6923 11.1627C13.6923 10.6097 14.1353 10.1627 14.6873 10.1627H14.6963ZM10.6875 10.1627C11.2395 10.1627 11.6875 10.6097 11.6875 11.1627C11.6875 11.7157 11.2395 12.1627 10.6875 12.1627C10.1355 12.1627 9.68348 11.7157 9.68348 11.1627C9.68348 10.6097 10.1255 10.1627 10.6785 10.1627H10.6875ZM6.67828 10.1627C7.23028 10.1627 7.67828 10.6097 7.67828 11.1627C7.67828 11.7157 7.23028 12.1627 6.67828 12.1627C6.12628 12.1627 5.67428 11.7157 5.67428 11.1627C5.67428 10.6097 6.11728 10.1627 6.66928 10.1627H6.67828Z" fill="#316F8A"/>
</svg>
