<svg width="60" height="60" viewBox="0 0 60 60" fill="none" xmlns="http://www.w3.org/2000/svg">
<g clip-path="url(#clip0_50:246)">
<path d="M54.9611 27.205C53.5809 27.205 52.4612 26.0853 52.4612 24.7051C52.4612 17.6926 49.7311 11.1027 44.7735 6.14236C43.7962 5.16503 43.7962 3.58529 44.7735 2.60751C45.7508 1.63018 47.331 1.63018 48.3084 2.60751C54.2112 8.50991 57.4609 16.3578 57.4609 24.7051C57.4609 26.0853 56.3412 27.205 54.9611 27.205Z" fill="#209AD7"/>
<path d="M4.96078 27.205C3.58109 27.205 2.46094 26.0853 2.46094 24.7051C2.46094 16.3578 5.71106 8.50991 11.6135 2.60751C12.5908 1.63018 14.171 1.63018 15.1483 2.60751C16.1261 3.58529 16.1261 5.16503 15.1483 6.14236C10.1907 11.0999 7.46109 17.6926 7.46109 24.7051C7.46109 26.0853 6.34094 27.205 4.96078 27.205Z" fill="#209AD7"/>
<path d="M39.961 50.0001C39.961 55.523 35.484 59.9999 29.9611 59.9999C24.4382 59.9999 19.9608 55.523 19.9608 50.0001C19.9608 44.4771 24.4382 39.9998 29.9611 39.9998C35.484 39.9998 39.961 44.4771 39.961 50.0001Z" fill="#FFA000"/>
<path d="M29.9611 9.99985C28.581 9.99985 27.4608 8.88016 27.4608 7.5V2.49985C27.4608 1.12015 28.581 0 29.9611 0C31.3408 0 32.461 1.12015 32.461 2.49985V7.5C32.461 8.88016 31.3408 9.99985 29.9611 9.99985Z" fill="#FFA000"/>
<path d="M53.4087 42.2801C49.6285 39.0849 47.461 34.4175 47.461 29.47V22.5001C47.461 12.85 39.6085 5.00024 29.9611 5.00024C20.3133 5.00024 12.4608 12.85 12.4608 22.5001V29.47C12.4608 34.4175 10.2933 39.0876 6.49112 42.3025C5.51837 43.1324 4.96082 44.345 4.96082 45.6249C4.96082 48.0378 6.92325 50.0002 9.33612 50.0002H50.5861C52.9985 50.0002 54.961 48.0378 54.961 45.6249C54.961 44.345 54.4034 43.1324 53.4087 42.2801Z" fill="#FFC107"/>
</g>
<defs>
<clipPath id="clip0_50:246">
<rect width="60" height="60" fill="white"/>
</clipPath>
</defs>
</svg>
