<svg width="60" height="60" viewBox="0 0 60 60" fill="none" xmlns="http://www.w3.org/2000/svg">
<path d="M37.11 31.1529C36.0932 30.4223 34.9863 29.8599 33.8202 29.4758C35.3706 28.3118 36.3753 26.4585 36.3753 24.375C36.3753 20.8598 33.5155 18 30.0003 18C26.4851 18 23.6253 20.8598 23.6253 24.375C23.6253 26.4611 24.6326 28.3164 26.1863 29.4802C24.7628 29.9489 23.4271 30.6781 22.258 31.6397C20.1143 33.403 18.6238 35.8625 18.0612 38.5651C17.8848 39.412 18.0961 40.2818 18.6407 40.9515C19.1826 41.6178 19.9862 42 20.8453 42H30.516C31.0338 42 31.4535 41.5803 31.4535 41.0625C31.4535 40.5447 31.0338 40.125 30.516 40.125H20.8453C20.4451 40.125 20.2037 39.9016 20.0954 39.7685C19.9084 39.5385 19.836 39.2393 19.8968 38.9473C20.8698 34.2741 24.9917 30.8603 29.7518 30.7452C29.8343 30.7484 29.9171 30.75 30.0003 30.75C30.0842 30.75 30.1676 30.7484 30.2507 30.7451C32.335 30.7944 34.3233 31.4593 36.0158 32.6755C36.4362 32.9777 37.022 32.8817 37.3242 32.4614C37.6263 32.0409 37.5304 31.4551 37.11 31.1529ZM30.2286 28.8693C30.1526 28.8679 30.0765 28.8672 30.0003 28.8672C29.9247 28.8672 29.849 28.8679 29.7735 28.8693C27.3971 28.7508 25.5003 26.7802 25.5003 24.375C25.5003 21.8937 27.519 19.875 30.0003 19.875C32.4817 19.875 34.5003 21.8937 34.5003 24.375C34.5003 26.7798 32.6043 28.75 30.2286 28.8693Z" fill="#316F8A"/>
<path d="M39.3415 38.0157L41.7254 35.6318C42.0916 35.2656 42.0916 34.672 41.7254 34.3059C41.3593 33.9398 40.7657 33.9398 40.3996 34.3059L38.0156 36.6898L35.6317 34.3059C35.2655 33.9397 34.6719 33.9397 34.3059 34.3059C33.9398 34.672 33.9397 35.2656 34.3059 35.6317L36.6898 38.0157L34.3059 40.3996C33.9397 40.7658 33.9397 41.3594 34.3059 41.7255C34.4889 41.9086 34.7288 42.0001 34.9688 42.0001C35.2087 42.0001 35.4486 41.9086 35.6317 41.7255L38.0156 39.3416L40.3996 41.7255C40.5827 41.9086 40.8226 42.0001 41.0625 42.0001C41.3025 42.0001 41.5424 41.9086 41.7254 41.7255C42.0916 41.3594 42.0916 40.7658 41.7254 40.3997L39.3415 38.0157Z" fill="#316F8A"/>
<circle cx="30" cy="30" r="29" stroke="#316F8A" stroke-width="2"/>
</svg>
