<svg width="90" height="86" viewBox="0 0 90 86" fill="none" xmlns="http://www.w3.org/2000/svg">
<g clip-path="url(#clip0_1221_3578)">
<path d="M56.88 19.3407H33.14C32.599 19.3414 32.0803 19.5566 31.6978 19.9391C31.3153 20.3217 31.1001 20.8403 31.0994 21.3813V74.1438L30.8273 74.2268L25.0035 76.0103C24.7275 76.0945 24.4294 76.0657 24.1746 75.9302C23.9198 75.7948 23.7292 75.5638 23.6445 75.2879L6.32132 18.7027C6.23702 18.4267 6.26575 18.1285 6.40121 17.8737C6.53666 17.6188 6.76775 17.4282 7.04369 17.3437L16.0182 14.5957L42.0356 6.632L51.01 3.88402C51.1466 3.84199 51.2901 3.8273 51.4323 3.8408C51.5746 3.85429 51.7128 3.89571 51.839 3.96268C51.9653 4.02965 52.0771 4.12086 52.168 4.23108C52.2589 4.3413 52.3273 4.46837 52.369 4.60503L56.7971 19.0686L56.88 19.3407Z" fill="#F2F2F2"/>
<path d="M62.0611 19.0699L56.7243 1.63791C56.6355 1.34746 56.4903 1.07735 56.2971 0.843024C56.1039 0.608695 55.8664 0.414736 55.5982 0.27223C55.33 0.129724 55.0363 0.0414624 54.734 0.0124931C54.4316 -0.0164761 54.1266 0.0144142 53.8362 0.103396L41.2186 3.96553L15.2026 11.9306L2.58507 15.7941C1.99892 15.9741 1.50813 16.3793 1.22043 16.9207C0.932729 17.4622 0.871617 18.0957 1.05051 18.6822L19.2906 78.2575C19.4359 78.7309 19.7291 79.1453 20.1272 79.4399C20.5253 79.7344 21.0074 79.8936 21.5026 79.8941C21.7318 79.8942 21.9597 79.8598 22.1787 79.792L30.828 77.1447L31.1001 77.0604V76.7761L30.828 76.859L22.0984 79.5322C21.581 79.6899 21.0222 79.636 20.5446 79.3822C20.0669 79.1285 19.7094 78.6956 19.5504 78.1786L1.31176 18.6019C1.23301 18.3457 1.20556 18.0766 1.23099 17.8098C1.25642 17.543 1.33422 17.2838 1.45995 17.0471C1.58568 16.8104 1.75687 16.6009 1.9637 16.4305C2.17053 16.26 2.40895 16.1321 2.66531 16.0539L15.2829 12.1904L41.2989 4.22673L53.9165 0.363232C54.1109 0.303892 54.3131 0.273635 54.5164 0.273446C54.9527 0.274426 55.3772 0.415084 55.7277 0.674817C56.0783 0.934551 56.3365 1.29971 56.4645 1.71681L61.7768 19.0699L61.8611 19.342H62.1441L62.0611 19.0699Z" fill="#333333" fill-opacity="0.51"/>
<path d="M17.6376 17.3882C17.3754 17.388 17.1202 17.3038 16.9094 17.1479C16.6985 16.992 16.5432 16.7727 16.4662 16.5221L14.7139 10.7987C14.6669 10.6449 14.6505 10.4834 14.6659 10.3234C14.6812 10.1633 14.7279 10.0079 14.8034 9.86587C14.8788 9.72387 14.9815 9.59813 15.1055 9.49582C15.2295 9.3935 15.3725 9.31663 15.5263 9.26958L39.4607 1.94203C39.7712 1.84729 40.1066 1.8796 40.3933 2.03188C40.68 2.18416 40.8946 2.44397 40.9899 2.75428L42.7421 8.47773C42.8368 8.78822 42.8045 9.12359 42.6522 9.41027C42.4999 9.69694 42.2402 9.91151 41.9299 10.0069L17.9953 17.3344C17.8794 17.37 17.7589 17.3881 17.6376 17.3882Z" fill="#316F8A"/>
<path d="M26.8165 6.11537C28.3192 6.11537 29.5373 4.89724 29.5373 3.3946C29.5373 1.89196 28.3192 0.673828 26.8165 0.673828C25.3139 0.673828 24.0958 1.89196 24.0958 3.3946C24.0958 4.89724 25.3139 6.11537 26.8165 6.11537Z" fill="#316F8A"/>
<path d="M26.8166 5.11763C27.7681 5.11763 28.5394 4.34627 28.5394 3.39475C28.5394 2.44323 27.7681 1.67188 26.8166 1.67188C25.865 1.67188 25.0937 2.44323 25.0937 3.39475C25.0937 4.34627 25.865 5.11763 26.8166 5.11763Z" fill="white"/>
<path d="M82.9301 79.1973H36.9491C36.6425 79.197 36.3486 79.075 36.1318 78.8582C35.915 78.6415 35.7931 78.3476 35.7927 78.041V22.9454C35.7931 22.6388 35.915 22.3449 36.1318 22.1281C36.3486 21.9113 36.6425 21.7894 36.9491 21.7891H82.9301C83.2366 21.7894 83.5305 21.9114 83.7473 22.1281C83.9641 22.3449 84.086 22.6388 84.0864 22.9454V78.041C84.086 78.3476 83.9641 78.6415 83.7473 78.8582C83.5305 79.075 83.2366 79.1969 82.9301 79.1973Z" fill="#F2F2F2"/>
<path d="M61.7761 19.0703H33.14C32.5269 19.0712 31.9392 19.3151 31.5057 19.7486C31.0721 20.1822 30.8282 20.7699 30.8273 21.383V76.8595L31.0994 76.7765V21.383C31.1001 20.842 31.3153 20.3233 31.6978 19.9408C32.0803 19.5582 32.599 19.343 33.14 19.3424H61.8605L61.7761 19.0703ZM86.7392 19.0703H33.14C32.5269 19.0712 31.9392 19.3151 31.5057 19.7486C31.0721 20.1822 30.8282 20.7699 30.8273 21.383V83.6886C30.8282 84.3017 31.0721 84.8894 31.5057 85.323C31.9392 85.7565 32.5269 86.0004 33.14 86.0013H86.7392C87.3523 86.0004 87.94 85.7565 88.3735 85.323C88.807 84.8894 89.051 84.3017 89.0518 83.6886V21.383C89.051 20.7699 88.807 20.1822 88.3735 19.7486C87.94 19.3151 87.3523 19.0712 86.7392 19.0703ZM88.7797 83.6886C88.7791 84.2296 88.5639 84.7483 88.1813 85.1308C87.7988 85.5133 87.2802 85.7285 86.7392 85.7292H33.14C32.599 85.7285 32.0803 85.5133 31.6978 85.1308C31.3153 84.7483 31.1001 84.2296 31.0994 83.6886V21.383C31.1001 20.842 31.3153 20.3233 31.6978 19.9408C32.0803 19.5582 32.599 19.343 33.14 19.3424H86.7392C87.2802 19.343 87.7988 19.5582 88.1813 19.9408C88.5639 20.3233 88.7791 20.842 88.7797 21.383V83.6886Z" fill="#333333" fill-opacity="0.51"/>
<path d="M72.4551 25.0555H47.424C47.0994 25.0551 46.7882 24.926 46.5586 24.6965C46.3291 24.4669 46.2 24.1557 46.1996 23.8311V17.8454C46.2 17.5208 46.3291 17.2096 46.5587 16.9801C46.7882 16.7506 47.0994 16.6215 47.424 16.6211H72.4551C72.7797 16.6215 73.0909 16.7506 73.3204 16.9801C73.5499 17.2096 73.6791 17.5208 73.6794 17.8454V23.8311C73.6791 24.1557 73.55 24.4669 73.3204 24.6965C73.0909 24.926 72.7797 25.0551 72.4551 25.0555Z" fill="#316F8A"/>
<path d="M59.9395 17.0275C61.4422 17.0275 62.6603 15.8093 62.6603 14.3067C62.6603 12.8041 61.4422 11.5859 59.9395 11.5859C58.4369 11.5859 57.2188 12.8041 57.2188 14.3067C57.2188 15.8093 58.4369 17.0275 59.9395 17.0275Z" fill="#316F8A"/>
<path d="M59.9396 15.9648C60.8548 15.9648 61.5968 15.2228 61.5968 14.3076C61.5968 13.3923 60.8548 12.6504 59.9396 12.6504C59.0243 12.6504 58.2823 13.3923 58.2823 14.3076C58.2823 15.2228 59.0243 15.9648 59.9396 15.9648Z" fill="white"/>
</g>
<defs>
<clipPath id="clip0_1221_3578">
<rect width="88.1035" height="86" fill="white" transform="translate(0.948273)"/>
</clipPath>
</defs>
</svg>
