<svg width="43" height="85" viewBox="0 0 43 85" fill="none" xmlns="http://www.w3.org/2000/svg">
<path d="M42.0035 5.01179C42.0035 2.24386 39.7597 0 36.9917 0H5.6179C2.84996 0 0.606113 2.24386 0.606113 5.01179V18.7942C0.301643 18.7942 0.0548172 19.041 0.0548172 19.3455V26.1616C0.0548172 26.466 0.301643 26.7129 0.606113 26.7129V79.9882C0.606113 82.7561 2.84997 85 5.61791 85H36.9917C39.7597 85 42.0035 82.7561 42.0035 79.9882V30.2712H42.1038C42.3252 30.2712 42.5047 30.0917 42.5047 29.8703V23.9564C42.5047 23.7349 42.3252 23.5554 42.1038 23.5554H42.0035V22.3025H42.1038C42.3252 22.3025 42.5047 22.123 42.5047 21.9015V15.7871C42.5047 15.5657 42.3252 15.3862 42.1038 15.3862H42.0035V5.01179Z" fill="#DBDBDB"/>
<path d="M32.2806 1.8042H36.8915C38.6629 1.8042 40.099 3.24027 40.099 5.01175V79.9882C40.099 81.7596 38.6629 83.1957 36.8915 83.1957H5.7181C3.94662 83.1957 2.51055 81.7596 2.51055 79.9882V5.01175C2.51055 3.24027 3.94662 1.8042 5.7181 1.8042H10.2287V2.30538C10.2287 3.41255 11.1263 4.3101 12.2334 4.3101H30.2759C31.3831 4.3101 32.2806 3.41255 32.2806 2.30538V1.8042Z" fill="white"/>
<rect opacity="0.4" width="8.62028" height="0.801887" rx="0.400943" transform="matrix(-1 0 0 1 25.1638 1.8042)" fill="#CCCCCC"/>
<rect opacity="0.5" width="1.80425" height="1.80425" rx="0.902123" transform="matrix(-1 0 0 1 15.1403 1.30322)" fill="#DDDDDD"/>
<rect opacity="0.5" width="1.00236" height="1.00236" rx="0.501179" transform="matrix(-1 0 0 1 14.7393 1.7041)" fill="white"/>
<rect opacity="0.5" width="0.801887" height="0.801887" rx="0.400943" transform="matrix(-1 0 0 1 29.9752 1.8042)" fill="#CCCCCC"/>
</svg>
