<svg width="21" height="21" viewBox="0 0 21 21" fill="none" xmlns="http://www.w3.org/2000/svg">
<path fill-rule="evenodd" clip-rule="evenodd" d="M17.3598 15.9187C17.3598 18.8027 13.4048 19.1361 10.4306 19.1361L10.2178 19.1359C8.32294 19.1313 3.49976 19.0117 3.49976 15.9012C3.49976 13.0761 7.29581 12.6985 10.2473 12.6843L10.6435 12.684C12.5382 12.6886 17.3598 12.8083 17.3598 15.9187ZM10.4306 13.9964C6.70226 13.9964 4.81226 14.6369 4.81226 15.9012C4.81226 17.177 6.70226 17.8236 10.4306 17.8236C14.1581 17.8236 16.0473 17.1831 16.0473 15.9187C16.0473 14.643 14.1581 13.9964 10.4306 13.9964ZM10.4306 1.74951C12.9926 1.74951 15.076 3.83376 15.076 6.39576C15.076 8.95776 12.9926 11.0411 10.4306 11.0411H10.4026C7.84588 11.0333 5.77476 8.94814 5.78348 6.39314C5.78348 3.83376 7.86776 1.74951 10.4306 1.74951ZM10.4306 2.99901C8.55726 2.99901 7.03299 4.52239 7.03299 6.39576C7.02688 8.26301 8.53976 9.78551 10.4053 9.79251L10.4306 10.4173V9.79251C12.3031 9.79251 13.8265 8.26826 13.8265 6.39576C13.8265 4.52239 12.3031 2.99901 10.4306 2.99901Z" fill="#8C8C8C"/>
</svg>
