<svg width="16" height="16" viewBox="0 0 16 16" fill="none" xmlns="http://www.w3.org/2000/svg">
<path fill-rule="evenodd" clip-rule="evenodd" d="M7.8258 1.33301C11.4058 1.33301 14.3178 4.24501 14.3178 7.82501C14.3178 9.51404 13.6696 11.0545 12.6089 12.2107L14.6961 14.2935C14.8914 14.4888 14.8921 14.8048 14.6967 15.0001C14.5994 15.0988 14.4707 15.1475 14.3427 15.1475C14.2154 15.1475 14.0874 15.0988 13.9894 15.0015L11.877 12.895C10.7658 13.7849 9.35691 14.3177 7.8258 14.3177C4.2458 14.3177 1.33313 11.405 1.33313 7.82501C1.33313 4.24501 4.2458 1.33301 7.8258 1.33301ZM7.8258 2.33301C4.79713 2.33301 2.33313 4.79634 2.33313 7.82501C2.33313 10.8537 4.79713 13.3177 7.8258 13.3177C10.8538 13.3177 13.3178 10.8537 13.3178 7.82501C13.3178 4.79634 10.8538 2.33301 7.8258 2.33301Z" fill="#333333" fill-opacity="0.51"/>
</svg>
