<svg width="22" height="19" viewBox="0 0 22 19" fill="none" xmlns="http://www.w3.org/2000/svg">
<path d="M19 0.5H3C2.20435 0.5 1.44129 0.816071 0.87868 1.37868C0.31607 1.94129 0 2.70435 0 3.5V15.5C0 16.2956 0.31607 17.0587 0.87868 17.6213C1.44129 18.1839 2.20435 18.5 3 18.5H19C19.7956 18.5 20.5587 18.1839 21.1213 17.6213C21.6839 17.0587 22 16.2956 22 15.5V3.5C22 2.70435 21.6839 1.94129 21.1213 1.37868C20.5587 0.816071 19.7956 0.5 19 0.5ZM20 15.5C20 15.7652 19.8946 16.0196 19.7071 16.2071C19.5196 16.3946 19.2652 16.5 19 16.5H3C2.73478 16.5 2.48043 16.3946 2.29289 16.2071C2.10536 16.0196 2 15.7652 2 15.5V10.5H20V15.5ZM20 8.5H2V6.5H20V8.5ZM20 4.5H2V3.5C2 3.23478 2.10536 2.98043 2.29289 2.79289C2.48043 2.60536 2.73478 2.5 3 2.5H19C19.2652 2.5 19.5196 2.60536 19.7071 2.79289C19.8946 2.98043 20 3.23478 20 3.5V4.5ZM4 13.5C4 13.2348 4.10536 12.9804 4.29289 12.7929C4.48043 12.6054 4.73478 12.5 5 12.5H8C8.26522 12.5 8.51957 12.6054 8.70711 12.7929C8.89464 12.9804 9 13.2348 9 13.5C9 13.7652 8.89464 14.0196 8.70711 14.2071C8.51957 14.3946 8.26522 14.5 8 14.5H5C4.73478 14.5 4.48043 14.3946 4.29289 14.2071C4.10536 14.0196 4 13.7652 4 13.5Z" fill="#316F8A"/>
</svg>
