<svg width="20" height="19" viewBox="0 0 20 19" fill="none" xmlns="http://www.w3.org/2000/svg">
<path d="M18 10.68V8.5C18 6.37827 17.1571 4.34344 15.6569 2.84315C14.1566 1.34285 12.1217 0.5 10 0.5C7.87827 0.5 5.84344 1.34285 4.34315 2.84315C2.84285 4.34344 2 6.37827 2 8.5V10.68C1.41645 10.8863 0.910998 11.2681 0.552938 11.7729C0.194879 12.2778 0.00173951 12.8811 0 13.5V15.5C0 16.2956 0.316071 17.0587 0.87868 17.6213C1.44129 18.1839 2.20435 18.5 3 18.5H6C6.26522 18.5 6.51957 18.3946 6.70711 18.2071C6.89464 18.0196 7 17.7652 7 17.5V11.5C7 11.2348 6.89464 10.9804 6.70711 10.7929C6.51957 10.6054 6.26522 10.5 6 10.5H4V8.5C4 6.9087 4.63214 5.38258 5.75736 4.25736C6.88258 3.13214 8.4087 2.5 10 2.5C11.5913 2.5 13.1174 3.13214 14.2426 4.25736C15.3679 5.38258 16 6.9087 16 8.5V10.5H14C13.7348 10.5 13.4804 10.6054 13.2929 10.7929C13.1054 10.9804 13 11.2348 13 11.5V17.5C13 17.7652 13.1054 18.0196 13.2929 18.2071C13.4804 18.3946 13.7348 18.5 14 18.5H17C17.7956 18.5 18.5587 18.1839 19.1213 17.6213C19.6839 17.0587 20 16.2956 20 15.5V13.5C19.9983 12.8811 19.8051 12.2778 19.4471 11.7729C19.089 11.2681 18.5835 10.8863 18 10.68ZM5 12.5V16.5H3C2.73478 16.5 2.48043 16.3946 2.29289 16.2071C2.10536 16.0196 2 15.7652 2 15.5V13.5C2 13.2348 2.10536 12.9804 2.29289 12.7929C2.48043 12.6054 2.73478 12.5 3 12.5H5ZM18 15.5C18 15.7652 17.8946 16.0196 17.7071 16.2071C17.5196 16.3946 17.2652 16.5 17 16.5H15V12.5H17C17.2652 12.5 17.5196 12.6054 17.7071 12.7929C17.8946 12.9804 18 13.2348 18 13.5V15.5Z" fill="#316F8A"/>
</svg>
