<svg width="81" height="80" viewBox="0 0 81 80" fill="none" xmlns="http://www.w3.org/2000/svg">
<path d="M40.4224 17.6099C28.0133 17.6099 17.9539 27.6693 17.9539 40.0784C17.9539 52.4874 28.0133 62.5469 40.4224 62.5469C52.8314 62.5469 62.8909 52.4874 62.8909 40.0784C62.8909 27.6693 52.8314 17.6099 40.4224 17.6099ZM51.5397 44.6066L45.2812 38.3481V58.3289H35.5629V38.3481L29.3045 44.6066V32.9452L40.4218 21.8278L51.5391 32.9452V44.6066H51.5397Z" fill="#8C8C8C" fill-opacity="0.19"/>
<path d="M40.499 71.2136C36.2863 71.2136 32.1978 70.3879 28.3483 68.7597C24.6313 67.1875 21.2933 64.9371 18.4271 62.0709C15.5608 59.2046 13.3104 55.8666 11.7382 52.1496C10.1101 48.2996 9.2843 44.2116 9.2843 39.9989C9.2843 35.7862 10.1101 31.6976 11.7382 27.8482C13.3104 24.1312 15.5608 20.7932 18.4271 17.9269C21.2933 15.0607 24.6313 12.8103 28.3483 11.2381C32.1983 9.60993 36.2863 8.78418 40.499 8.78418C44.7118 8.78418 48.8003 9.60993 52.6497 11.2381C56.3673 12.8103 59.7048 15.0607 62.571 17.9269C65.4372 20.7932 67.687 24.1312 69.2598 27.8482C70.888 31.6982 71.7137 35.7862 71.7137 39.9989C71.7137 44.2116 70.888 48.3002 69.2598 52.1496C67.6876 55.8672 65.4372 59.2046 62.571 62.0709C59.7048 64.9371 56.3668 67.1869 52.6497 68.7597C48.8003 70.3879 44.7123 71.2136 40.499 71.2136ZM40.499 13.4489C25.8594 13.4489 13.949 25.3593 13.949 39.9989C13.949 54.6385 25.8594 66.5489 40.499 66.5489C55.1386 66.5489 67.0491 54.6385 67.0491 39.9989C67.0491 25.3593 55.1386 13.4489 40.499 13.4489Z" fill="#8C8C8C" fill-opacity="0.19"/>
<path d="M40.5 80C35.1011 80 29.8626 78.9422 24.9297 76.8556C20.1664 74.8408 15.889 71.9571 12.2157 68.2843C8.54292 64.6116 5.6592 60.3341 3.64439 55.5703C1.55785 50.638 0.5 45.3989 0.5 40C0.5 34.6011 1.55785 29.3626 3.64439 24.4297C5.6592 19.6664 8.54292 15.389 12.2157 11.7157C15.8884 8.04292 20.1659 5.1592 24.9297 3.14439C29.8626 1.05785 35.1011 0 40.5 0C45.8989 0 51.1374 1.05785 56.0703 3.14439C60.8336 5.1592 65.1116 8.04292 68.7843 11.7157C72.4571 15.3884 75.3408 19.6659 77.3556 24.4297C79.4422 29.3626 80.5 34.6011 80.5 40C80.5 45.3989 79.4422 50.6374 77.3556 55.5703C75.3408 60.3336 72.4571 64.6116 68.7843 68.2843C65.1116 71.9571 60.8341 74.8408 56.0703 76.8556C51.138 78.9422 45.8989 80 40.5 80ZM40.5 4.66468C21.0161 4.66468 5.16468 20.5161 5.16468 40C5.16468 59.4839 21.0161 75.3353 40.5 75.3353C59.9839 75.3353 75.8353 59.4839 75.8353 40C75.8353 20.5161 59.9839 4.66468 40.5 4.66468Z" fill="#8C8C8C" fill-opacity="0.19"/>
</svg>
