<svg width="16" height="16" viewBox="0 0 16 16" fill="none" xmlns="http://www.w3.org/2000/svg">
<path d="M13.0726 5.01667C13.6273 4.68507 14.0423 4.16293 14.2402 3.54773C13.719 3.85699 13.1487 4.07484 12.554 4.19186C11.7296 3.31974 10.4233 3.1075 9.3652 3.67375C8.30704 4.24 7.75895 5.44454 8.02718 6.61432C5.89221 6.50713 3.90311 5.49864 2.55485 3.83979C1.85122 5.05344 2.21079 6.6049 3.37657 7.3853C2.95501 7.37175 2.5428 7.25761 2.17431 7.0524C2.17431 7.06354 2.17431 7.07468 2.17431 7.08582C2.17455 8.35004 3.06556 9.43902 4.30471 9.68957C3.91369 9.79595 3.50354 9.81161 3.10555 9.73536C3.45403 10.8165 4.45046 11.5572 5.58617 11.5793C4.64554 12.3175 3.48391 12.7179 2.28816 12.7159C2.07622 12.7162 1.86444 12.7041 1.65393 12.6794C2.86818 13.4597 4.28142 13.8739 5.72477 13.8724C7.73281 13.8862 9.66259 13.0946 11.0825 11.6746C12.5023 10.2546 13.2938 8.32473 13.2799 6.31669C13.2799 6.20161 13.2772 6.08713 13.2718 5.97328C13.7919 5.59745 14.2407 5.13186 14.5972 4.59839C14.1127 4.81314 13.5988 4.95413 13.0726 5.01667Z" fill="#333333"/>
</svg>
