<svg width="14" height="11" viewBox="0 0 14 11" fill="none" xmlns="http://www.w3.org/2000/svg">
<path d="M11.6638 2.40076C12.1867 2.08814 12.5779 1.5959 12.7645 1.01592C12.2731 1.30748 11.7355 1.51285 11.1749 1.62317C10.3977 0.800981 9.16623 0.600897 8.16866 1.13472C7.17109 1.66855 6.65439 2.80413 6.90726 3.90692C4.89453 3.80587 3.01932 2.85512 1.74826 1.29126C1.08492 2.43542 1.4239 3.89805 2.52293 4.63376C2.12551 4.62098 1.7369 4.51338 1.38951 4.31992C1.38951 4.33042 1.38951 4.34092 1.38951 4.35142C1.38974 5.54326 2.22973 6.56989 3.39793 6.80609C3.0293 6.90638 2.64263 6.92115 2.26743 6.84926C2.59596 7.8685 3.53533 8.56676 4.60601 8.58759C3.71924 9.28358 2.62412 9.66102 1.49684 9.65917C1.29703 9.65946 1.09738 9.64797 0.898926 9.62476C2.04365 10.3604 3.37597 10.7508 4.73668 10.7494C6.62974 10.7624 8.44903 10.0161 9.7876 8.67743C11.1262 7.33875 11.8723 5.5194 11.8592 3.62634C11.8592 3.51784 11.8566 3.40992 11.8516 3.30259C12.3419 2.94827 12.765 2.50934 13.1011 2.00642C12.6444 2.20888 12.1599 2.3418 11.6638 2.40076Z" fill="#03A9F4"/>
</svg>
