<svg width="22" height="21" viewBox="0 0 22 21" fill="none" xmlns="http://www.w3.org/2000/svg">
<path fill-rule="evenodd" clip-rule="evenodd" d="M10.901 12.6122L10.9998 12.6123L11.2208 12.613C12.9101 12.6242 16.7705 12.7948 16.7705 15.4114C16.7705 18.0108 13.0447 18.1803 11.2472 18.1914L10.5812 18.1913C8.89183 18.1802 5.03064 18.0098 5.03064 15.3965C5.03064 12.7938 8.89183 12.6241 10.5812 12.613L10.8022 12.6123C10.8365 12.6123 10.8695 12.6122 10.901 12.6122ZM10.901 13.9247C8.82202 13.9247 6.34314 14.1803 6.34314 15.3965C6.34314 16.5852 8.67406 16.8631 10.711 16.8789L10.901 16.8796C12.98 16.8796 15.458 16.625 15.458 15.4114C15.458 14.1829 12.98 13.9247 10.901 13.9247ZM17.8604 12.2572C19.9805 12.5748 20.4259 13.5705 20.4259 14.3502C20.4259 14.8262 20.2387 15.695 18.9874 16.1719C18.9104 16.2008 18.8317 16.2148 18.7538 16.2148C18.4895 16.2148 18.2402 16.0538 18.1404 15.7922C18.0109 15.4535 18.1815 15.0738 18.5202 14.9452C19.1134 14.7194 19.1134 14.47 19.1134 14.3502C19.1134 13.9669 18.626 13.6992 17.6653 13.5557C17.3074 13.5014 17.0598 13.168 17.1132 12.8084C17.1665 12.4497 17.499 12.2108 17.8604 12.2572ZM4.68799 12.8084C4.74137 13.168 4.49374 13.5014 4.13587 13.5557C3.17512 13.6992 2.68774 13.9669 2.68774 14.3502C2.68774 14.47 2.68774 14.7185 3.28187 14.9452C3.62049 15.0738 3.79112 15.4535 3.66162 15.7922C3.56187 16.0538 3.31249 16.2148 3.04824 16.2148C2.97037 16.2148 2.89162 16.2008 2.81462 16.1719C1.56249 15.6942 1.37524 14.8253 1.37524 14.3502C1.37524 13.5714 1.82062 12.5748 3.94162 12.2572C4.30299 12.2117 4.63374 12.4497 4.68799 12.8084ZM10.901 3.5C13.106 3.5 14.8989 5.29375 14.8989 7.49787C14.8989 9.702 13.106 11.4957 10.901 11.4957H10.8774C9.80989 11.4922 8.80977 11.074 8.06077 10.318C7.31002 9.56287 6.89964 8.56012 6.90398 7.49525C6.90398 5.29375 8.69689 3.5 10.901 3.5ZM10.901 4.8125C9.42052 4.8125 8.2165 6.01737 8.2165 7.49787C8.21389 8.21537 8.48865 8.8865 8.99177 9.39313C9.49489 9.89975 10.1651 10.1806 10.8791 10.1832L10.901 10.8395V10.1832C12.3815 10.1832 13.5864 8.97925 13.5864 7.49787C13.5864 6.01737 12.3815 4.8125 10.901 4.8125ZM16.3164 4.35706C17.8546 4.60994 18.972 5.92594 18.972 7.48606C18.9685 9.05669 17.7951 10.4042 16.242 10.6221C16.2114 10.6264 16.1808 10.6282 16.151 10.6282C15.829 10.6282 15.5481 10.3911 15.5018 10.0629C15.4519 9.70331 15.7013 9.37169 16.0609 9.32181C16.9709 9.19406 17.6578 8.40481 17.6595 7.48431C17.6595 6.57169 17.005 5.79994 16.1029 5.65206C15.7459 5.59344 15.5035 5.25569 15.5621 4.89781C15.6216 4.53994 15.9568 4.30019 16.3164 4.35706ZM6.23989 4.89781C6.29852 5.25569 6.05614 5.59344 5.69914 5.65206C4.79702 5.79994 4.14252 6.57169 4.14252 7.48606C4.14427 8.40481 4.83114 9.19494 5.74027 9.32181C6.09989 9.37169 6.34927 9.70331 6.29939 10.0629C6.25302 10.3911 5.97214 10.6282 5.65014 10.6282C5.62039 10.6282 5.58977 10.6264 5.55914 10.6221C4.00602 10.4042 2.83352 9.05669 2.83002 7.48781C2.83002 5.92594 3.94739 4.60994 5.48564 4.35706C5.85402 4.29931 6.18039 4.54169 6.23989 4.89781Z" fill="#8C8C8C"/>
</svg>
