<svg width="4" height="14" viewBox="0 0 4 14" fill="none" xmlns="http://www.w3.org/2000/svg">
<path d="M1.99998 13.6673C1.0795 13.6673 0.333313 12.9211 0.333313 12.0007C0.333313 11.0802 1.0795 10.334 1.99998 10.334C2.92045 10.334 3.66665 11.0802 3.66665 12.0007C3.66665 12.9211 2.92045 13.6673 1.99998 13.6673ZM1.99998 8.66732C1.0795 8.66732 0.333313 7.92112 0.333313 7.00065C0.333313 6.08018 1.0795 5.33398 1.99998 5.33398C2.92045 5.33398 3.66665 6.08018 3.66665 7.00065C3.66665 7.44268 3.49105 7.8666 3.17849 8.17916C2.86593 8.49172 2.44201 8.66732 1.99998 8.66732ZM1.99998 3.66732C1.0795 3.66732 0.333313 2.92113 0.333313 2.00065C0.333313 1.08018 1.0795 0.333984 1.99998 0.333984C2.92045 0.333984 3.66665 1.08018 3.66665 2.00065C3.66665 2.44268 3.49105 2.8666 3.17849 3.17916C2.86593 3.49172 2.44201 3.66732 1.99998 3.66732Z" fill="#333333"/>
</svg>
